<svg xmlns="http://www.w3.org/2000/svg" xmlns:xlink="http://www.w3.org/1999/xlink" width="500" zoomAndPan="magnify" viewBox="0 0 375 374.999991" height="500" preserveAspectRatio="xMidYMid meet" version="1.0"><defs><filter x="0%" y="0%" width="100%" height="100%" id="29969141c1"><feColorMatrix values="0 0 0 0 1 0 0 0 0 1 0 0 0 0 1 0 0 0 1 0" color-interpolation-filters="sRGB"/></filter><g/><clipPath id="166e52f4c9"><path d="M 118 60.867188 L 257 60.867188 L 257 252.867188 L 118 252.867188 Z M 118 60.867188 " clip-rule="nonzero"/></clipPath><clipPath id="d4ba3a674a"><path d="M 236.65625 80.621094 C 236.019531 79.984375 235.382812 79.378906 234.746094 78.773438 C 222.785156 67.6875 206.765625 60.902344 189.289062 60.902344 C 150.339844 60.902344 118.480469 92.1875 118.480469 131.710938 L 118.480469 182.351562 C 118.480469 189.285156 119.511719 195.980469 121.386719 202.308594 C 123.597656 209.757812 127.050781 216.726562 131.472656 222.933594 C 144.222656 240.894531 165.210938 252.644531 188.773438 252.644531 C 200.707031 252.644531 211.941406 249.523438 221.695312 244.042969 C 242.351562 232.445312 256.402344 210.304688 256.402344 185.046875 L 256.402344 128.019531 C 256.339844 109.574219 248.800781 92.796875 236.65625 80.621094 Z M 237.109375 179.6875 C 237.109375 206.578125 215.09375 228.597656 188.199219 228.597656 C 187.652344 228.597656 187.136719 228.597656 186.625 228.566406 C 160.457031 227.71875 139.316406 206.066406 139.316406 179.6875 L 139.316406 131.289062 C 139.316406 106.152344 158.519531 85.285156 182.988281 82.679688 C 184.714844 82.496094 186.441406 82.40625 188.230469 82.40625 C 201.675781 82.40625 213.910156 87.917969 222.753906 96.761719 C 231.628906 105.636719 237.109375 117.839844 237.109375 131.289062 Z M 237.109375 179.6875 " clip-rule="evenodd"/></clipPath><clipPath id="4fda83ec05"><path d="M 80.578125 147 L 217 147 L 217 230 L 80.578125 230 Z M 80.578125 147 " clip-rule="nonzero"/></clipPath><mask id="80d3a50af8"><g filter="url(#29969141c1)"><rect x="-37.5" width="450" fill="#000000" y="-37.499999" height="449.999989" fill-opacity="0.8"/></g></mask><clipPath id="2c4dfdb382"><path d="M 0.640625 0.839844 L 118.960938 0.839844 L 118.960938 65 L 0.640625 65 Z M 0.640625 0.839844 " clip-rule="nonzero"/></clipPath><clipPath id="e59207c3cb"><rect x="0" width="119" y="0" height="66"/></clipPath><clipPath id="04d873d195"><path d="M 199 85 L 284.578125 85 L 284.578125 168 L 199 168 Z M 199 85 " clip-rule="nonzero"/></clipPath></defs><path fill="#fba708" d="M 243.980469 131.140625 L 243.980469 184.382812 C 244.011719 214.605469 216.8125 239.140625 186.859375 239.140625 C 158.453125 239.472656 129.953125 212.789062 130.046875 184.382812 L 130.046875 131.140625 C 130.015625 101.699219 157 74.835938 186.859375 74.835938 C 216.722656 74.835938 243.980469 97.765625 243.980469 131.140625 Z M 243.980469 131.140625 " fill-opacity="1" fill-rule="nonzero"/><path fill="#0c274e" d="M 136.015625 194.566406 L 142.832031 187.238281 C 143.132812 186.933594 143.617188 186.964844 143.859375 187.328125 C 144.316406 187.996094 145.039062 188.8125 145.796875 188.359375 C 146.378906 188.015625 146.835938 187.273438 147.242188 186.753906 C 147.890625 185.929688 148.597656 185.09375 149.132812 184.191406 C 149.601562 183.394531 149.917969 182.507812 150.476562 181.765625 C 150.609375 181.589844 151.1875 180.832031 151.445312 180.953125 C 151.648438 181.046875 151.621094 181.644531 151.914062 181.578125 C 152.164062 181.523438 152.417969 181.136719 152.570312 180.949219 C 153.089844 180.3125 153.507812 179.601562 153.902344 178.882812 C 154.941406 177 155.929688 175.125 157.253906 173.421875 C 157.863281 172.636719 158.621094 171.742188 159.609375 171.4375 C 161.734375 170.785156 162.949219 173.554688 164.257812 174.675781 C 164.914062 175.242188 165.851562 175.214844 166.585938 175.621094 C 167.023438 175.863281 167.15625 176.382812 167.519531 176.703125 C 168.109375 177.222656 168.890625 177.464844 169.4375 178.046875 C 171.355469 180.089844 171.816406 183.085938 173.078125 185.507812 C 173.773438 186.84375 174.554688 188.933594 173.5 190.273438 C 172.824219 191.136719 171.800781 191.671875 170.917969 192.292969 C 169.652344 193.183594 168.386719 194.132812 166.90625 194.648438 C 165.960938 194.976562 164.957031 195.046875 163.972656 195.238281 C 163.191406 195.390625 162.355469 195.65625 161.550781 195.648438 C 159.90625 195.632812 158.414062 194.816406 156.742188 194.886719 C 155.027344 194.957031 153.359375 195.394531 151.65625 195.550781 C 146.539062 196.019531 141.410156 196.410156 136.289062 196.839844 L 136.015625 194.570312 " fill-opacity="1" fill-rule="nonzero"/><path fill="#437eb1" d="M 142.6875 195.464844 C 144.890625 192.8125 146.957031 189.761719 150.144531 188.207031 C 153.039062 186.792969 157.054688 186.898438 159.160156 184.105469 C 159.296875 183.921875 158.84375 183.617188 158.75 183.5 C 158.445312 183.132812 158.460938 182.746094 158.679688 182.339844 C 159.191406 181.394531 159.824219 180.519531 160.253906 179.53125 C 160.359375 179.289062 160.640625 178.746094 160.441406 178.484375 C 160.265625 178.253906 159.867188 178.554688 159.707031 178.65625 C 159.1875 178.988281 157.84375 180.210938 157.664062 178.964844 C 157.480469 177.6875 158.277344 176.6875 158.800781 175.613281 C 159.167969 174.851562 159.355469 174.015625 159.695312 173.238281 C 159.792969 173.011719 160.476562 171.59375 160.878906 171.832031 C 161.304688 172.085938 161.363281 172.855469 161.601562 173.257812 C 161.925781 173.796875 162.523438 174.242188 162.984375 174.667969 C 163.710938 175.335938 164.769531 175.441406 165.515625 176.070312 C 168.078125 178.222656 169.867188 180.9375 172.773438 182.707031 C 174.175781 183.558594 177.800781 185.394531 177.109375 187.542969 C 176.816406 188.453125 175.835938 188.980469 175.015625 189.328125 C 173.105469 190.136719 171.023438 190.378906 169.011719 190.804688 C 167.046875 191.222656 165.15625 190.605469 163.195312 190.964844 C 161.5625 191.265625 160.007812 191.871094 158.386719 192.230469 C 153.167969 193.378906 147.917969 194.386719 142.6875 195.460938 " fill-opacity="1" fill-rule="nonzero"/><path fill="#0c274e" d="M 153.050781 215.050781 C 153.21875 214.679688 153.152344 214.242188 152.859375 213.960938 C 150.128906 211.34375 152.441406 206.648438 152.785156 202.773438 C 152.871094 201.820312 153.335938 200.433594 154.042969 199.476562 C 157.230469 195.136719 160.429688 190.808594 163.5625 186.425781 C 164.988281 184.433594 166.273438 182.339844 167.753906 180.386719 C 168.902344 178.871094 170.597656 177.785156 171.660156 176.234375 C 172.664062 174.757812 173.117188 172.667969 174.570312 171.53125 C 174.976562 171.214844 174.984375 172.148438 175.28125 172.257812 C 175.640625 172.390625 176.257812 171.691406 176.476562 171.460938 C 178.253906 169.613281 178.746094 166.9375 180.660156 165.179688 C 181.089844 164.785156 180.738281 165.894531 181.117188 165.8125 C 181.265625 165.78125 181.453125 165.476562 181.550781 165.367188 C 181.921875 164.964844 182.300781 164.566406 182.683594 164.171875 C 184.203125 162.589844 185.777344 161.03125 187.03125 159.222656 C 187.542969 158.488281 187.691406 157.652344 188.089844 156.875 C 188.234375 156.597656 188.453125 156.230469 188.789062 156.164062 C 190.175781 155.902344 191.4375 157.871094 192.300781 158.652344 C 193.796875 160.003906 195.609375 161.382812 196.839844 162.992188 C 197.285156 163.566406 197.214844 164.507812 197.808594 164.910156 C 198.222656 165.1875 198.203125 165.625 198.476562 166.007812 C 199.003906 166.742188 199.714844 167.367188 200.394531 167.9375 C 200.785156 168.265625 201.035156 168.75 201.488281 168.996094 C 201.726562 169.125 201.804688 168.941406 201.8125 168.730469 C 201.832031 168.257812 201.769531 167.609375 202.34375 168 C 202.4375 168.066406 202.503906 168.144531 202.578125 168.242188 C 202.664062 168.359375 202.792969 168.628906 202.855469 168.742188 C 203.144531 169.308594 203.617188 169.734375 203.917969 170.28125 C 204.191406 170.769531 204.339844 171.328125 204.667969 171.789062 C 204.804688 171.980469 205.027344 172.152344 205.269531 172.082031 C 205.34375 172.058594 205.410156 171.980469 205.476562 171.898438 C 205.515625 171.851562 205.558594 171.804688 205.605469 171.765625 C 205.746094 171.652344 205.894531 171.550781 206.054688 171.46875 C 206.675781 171.15625 206.675781 172.027344 206.929688 172.382812 C 207.691406 173.460938 208.558594 174.460938 209.433594 175.449219 C 210.082031 176.183594 210.722656 176.925781 211.359375 177.671875 C 211.460938 177.789062 211.894531 178.121094 211.917969 178.304688 C 211.941406 178.480469 212.039062 178.636719 212.15625 178.761719 C 216.160156 183.019531 220.125 187.316406 224.058594 191.636719 L 224.875 192.40625 C 225.058594 192.601562 225.597656 193.484375 225.777344 193.859375 C 226.207031 194.738281 226.707031 195.675781 226.972656 196.621094 C 227.785156 199.546875 225.929688 201.742188 224.644531 204.097656 C 223.910156 205.4375 222.960938 206.769531 222.019531 207.789062 C 220.171875 209.792969 217.910156 211.476562 215.625 212.945312 C 213.363281 214.398438 210.644531 215.203125 208.148438 216.140625 C 203.046875 218.0625 197.988281 219.5625 192.652344 220.691406 C 190.242188 221.203125 187.964844 221.566406 185.5 221.453125 C 180.421875 221.21875 175.316406 220.832031 170.382812 219.5 C 166.835938 218.546875 160.257812 221.125 156.96875 219.519531 C 155.773438 218.933594 151.855469 217.722656 153.046875 215.046875 Z M 153.050781 215.050781 " fill-opacity="1" fill-rule="nonzero"/><path fill="#437eb1" d="M 172.015625 184.027344 C 172.246094 183.710938 172.492188 183.417969 172.769531 183.207031 C 173.878906 181.832031 174.960938 180.429688 176.230469 179.199219 C 177.476562 177.988281 178.925781 177.054688 180.085938 175.746094 C 181.988281 173.59375 183.410156 171.070312 185.304688 168.914062 C 186.4375 167.617188 187.816406 166.664062 189.089844 165.519531 C 189.574219 165.082031 190.414062 164.449219 190.554688 163.765625 C 190.644531 163.328125 190.027344 163.585938 189.835938 163.65625 C 189.078125 163.941406 188.359375 164.335938 187.648438 164.722656 C 187.597656 164.75 186.675781 165.246094 186.675781 165.238281 C 186.511719 164.847656 187.09375 164.238281 187.304688 163.980469 C 187.898438 163.25 189.3125 162.117188 189.273438 161.074219 C 189.257812 160.734375 188.839844 161.1875 188.765625 161.261719 C 188.589844 161.429688 187.660156 162.570312 187.402344 162.121094 C 187.238281 161.839844 187.449219 161.425781 187.578125 161.179688 C 187.9375 160.492188 188.632812 159.878906 188.859375 159.136719 C 189.058594 158.496094 188.84375 157.734375 188.871094 157.074219 C 188.878906 156.867188 188.886719 156.378906 189.109375 156.25 C 189.238281 156.175781 189.566406 156.710938 189.644531 156.804688 C 190.1875 157.445312 190.753906 158.066406 191.363281 158.636719 C 191.691406 158.945312 192.035156 159.242188 192.40625 159.5 C 192.527344 159.582031 192.652344 159.660156 192.78125 159.734375 C 192.835938 159.765625 193.007812 159.820312 192.945312 159.824219 C 192.671875 159.847656 191.964844 159.265625 191.726562 159.449219 C 191.691406 159.476562 192.144531 159.898438 192.1875 159.9375 C 192.65625 160.386719 193.136719 160.816406 193.632812 161.234375 C 194.945312 162.34375 196.3125 163.363281 197.394531 164.71875 C 198.867188 166.574219 199.539062 168.9375 201.054688 170.722656 C 201.761719 171.554688 202.636719 171.46875 203.496094 171.992188 C 203.609375 172.058594 204.460938 172.546875 204.324219 172.773438 C 204.046875 173.230469 203.363281 173.480469 202.976562 173.917969 C 202.289062 174.699219 201.507812 175.457031 200.773438 176.203125 C 200.757812 176.222656 200.769531 174.894531 200.507812 175.023438 C 199.9375 175.308594 199.183594 176.273438 198.746094 176.769531 C 198.601562 176.929688 198.292969 177.199219 198.550781 177.296875 C 198.402344 177.515625 198.230469 177.722656 198.015625 177.925781 C 197.558594 178.363281 197.339844 177.402344 196.925781 177.886719 C 196.527344 178.351562 196.222656 178.824219 195.949219 179.375 C 195.84375 179.585938 195.539062 180.410156 195.257812 180.574219 C 195.191406 180.613281 195.238281 180.425781 195.238281 180.351562 C 195.234375 180.15625 195.273438 179.699219 195.144531 179.542969 C 195.03125 179.40625 194.839844 179.722656 194.691406 179.820312 C 193.515625 180.597656 193.199219 182.359375 192.664062 183.546875 C 192.636719 183.601562 191.8125 185.179688 191.828125 185.058594 C 191.375 185.589844 191.003906 186.046875 190.753906 186.378906 C 190.71875 186.425781 192.0625 186.898438 192.105469 186.949219 C 192.394531 187.304688 192.035156 187.601562 192.625 187.765625 C 193.003906 187.871094 193.367188 187.972656 193.714844 188.164062 C 193.757812 188.1875 194 188.289062 193.988281 188.359375 C 193.929688 188.640625 192.988281 188.386719 193.320312 188.683594 C 193.910156 189.207031 194.574219 189.183594 195.25 189.375 C 195.46875 189.4375 195.6875 189.570312 195.917969 189.597656 C 196.214844 189.632812 196.511719 189.628906 196.808594 189.597656 C 196.914062 189.585938 197.273438 189.402344 197.28125 189.5 C 198.144531 189.757812 198.894531 189.203125 199.367188 188.519531 C 199.753906 187.960938 200.03125 187.308594 200.519531 186.824219 C 201.972656 185.394531 203.808594 184.429688 205.082031 182.808594 C 205.519531 182.25 206.6875 181.421875 206.605469 180.621094 C 206.582031 180.378906 206.09375 180.65625 205.980469 180.703125 C 205.457031 180.921875 204.941406 181.175781 204.398438 181.347656 C 204.257812 181.394531 203.988281 181.503906 203.84375 181.421875 C 203.761719 181.375 204.136719 180.980469 204.167969 180.953125 C 204.417969 180.675781 205.277344 180.007812 205.25 179.59375 C 205.214844 179.039062 204.191406 179.578125 203.957031 179.304688 C 203.847656 179.179688 204.035156 178.855469 204.097656 178.746094 C 204.339844 178.328125 204.988281 177.863281 205.027344 177.359375 C 205.050781 177.023438 204.53125 176.972656 204.539062 176.617188 C 204.546875 176.015625 205.132812 175.546875 205.292969 174.988281 C 205.453125 174.421875 205.183594 173.835938 205.324219 173.265625 C 205.355469 173.136719 205.613281 172.226562 205.746094 172.210938 C 205.753906 172.210938 205.832031 172.449219 205.832031 172.453125 C 205.949219 172.765625 206.066406 173.082031 206.230469 173.371094 C 206.613281 174.066406 207.453125 174.484375 207.765625 175.210938 C 207.988281 175.726562 207.554688 176.34375 207.980469 176.800781 C 208.542969 177.40625 209.585938 177.746094 210.265625 178.222656 C 210.472656 178.367188 210.941406 178.636719 210.976562 178.925781 C 211.015625 179.28125 210.59375 179.78125 210.386719 180.035156 C 209.683594 180.898438 208.75 181.527344 207.925781 182.261719 C 205.96875 183.996094 203.613281 185.382812 201.84375 187.3125 C 200.433594 188.851562 199.738281 190.925781 198.058594 192.234375 C 197.691406 192.523438 197.148438 192.820312 196.804688 193.085938 C 196.378906 193.410156 195.058594 192.578125 194.730469 192.425781 C 192.75 191.535156 191.484375 190.488281 190 188.898438 C 189.5625 188.433594 189.078125 187.96875 188.699219 187.453125 C 188.59375 187.308594 188.40625 186.539062 188.132812 186.679688 C 186.320312 187.625 186.226562 190.972656 184.121094 191.617188 C 183.523438 191.796875 183.171875 190.902344 182.65625 191.035156 C 182.164062 191.160156 181.550781 192.101562 181.222656 192.464844 C 180.117188 193.679688 178.777344 195.609375 177.167969 196.1875 C 176.769531 196.328125 176.660156 195.964844 176.601562 195.636719 C 176.597656 195.621094 176.53125 195.101562 176.511719 195.113281 C 175.75 195.53125 175.042969 196.464844 174.449219 197.085938 C 172.90625 198.710938 171.503906 200.464844 170.054688 202.171875 C 169.183594 203.199219 168.320312 204.246094 167.28125 205.109375 C 166.023438 206.15625 164.605469 207 163.40625 208.117188 C 161.226562 210.152344 159.222656 212.777344 156.511719 214.132812 C 153.445312 215.667969 151.160156 213.339844 149.636719 210.824219 C 149.121094 209.972656 148.1875 208.839844 148.367188 207.769531 C 148.714844 205.652344 150.523438 203.371094 151.878906 201.792969 C 155.804688 197.210938 161.203125 194.265625 165.984375 190.695312 C 166.945312 189.976562 168.191406 189.21875 168.917969 188.246094 C 169.546875 187.398438 169.789062 186.199219 170.761719 185.652344 C 170.953125 185.546875 171.042969 185.320312 171.1875 185.15625 C 171.476562 184.824219 171.742188 184.410156 172.027344 184.023438 " fill-opacity="1" fill-rule="nonzero"/><path fill="#0c274e" d="M 240.683594 195.992188 C 237.59375 198.71875 226.480469 182.875 222.453125 178.183594 C 218.695312 173.761719 218.394531 174.0625 217.789062 174.0625 C 217.183594 174.0625 205.097656 179.152344 192.558594 195.113281 C 180.019531 211.074219 235.808594 211.011719 235.808594 211.011719 Z M 240.683594 195.992188 " fill-opacity="1" fill-rule="nonzero"/><path fill="#437eb1" d="M 232.4375 205.4375 C 232.457031 205.226562 232.761719 204.976562 232.898438 204.832031 C 233.351562 204.355469 233.804688 203.910156 234.152344 203.347656 C 234.605469 202.613281 235.082031 201.882812 235.527344 201.140625 C 235.929688 200.480469 236.871094 199.167969 236.792969 198.308594 C 236.703125 197.308594 235.917969 196.679688 235.398438 195.878906 C 235.085938 195.398438 234.902344 195.015625 234.5 194.601562 C 234.019531 194.105469 233.859375 193.601562 233.226562 193.246094 C 233.203125 193.234375 232.6875 192.949219 232.683594 192.953125 C 232.480469 193.109375 232.695312 193.933594 232.21875 193.789062 C 231.707031 193.636719 231.375 192.925781 231.097656 192.535156 C 230.382812 191.53125 229.546875 190.605469 228.902344 189.539062 C 228.691406 189.1875 228.367188 188.949219 228.152344 188.605469 C 228.152344 188.601562 227.671875 187.824219 227.671875 187.835938 C 227.539062 188.867188 228.0625 190.113281 228.285156 191.101562 C 228.3125 191.226562 228.621094 192.175781 228.476562 192.351562 C 228.394531 192.457031 228.300781 192.148438 228.230469 192.03125 C 227.902344 191.484375 227.644531 190.953125 227.378906 190.375 C 226.671875 188.828125 226.042969 187.253906 225.335938 185.703125 C 224.046875 182.867188 222.246094 180.210938 220.261719 177.835938 C 220.003906 177.53125 219.84375 177.117188 219.574219 176.835938 C 219.355469 176.613281 219.003906 176.511719 218.769531 176.273438 C 218.726562 176.230469 218.375 175.722656 218.3125 175.792969 C 217.433594 176.785156 217.089844 178.136719 216.410156 179.242188 C 215.667969 179.796875 214.597656 180.683594 214.605469 181.3125 C 214.609375 182.070312 216.59375 181.859375 216.167969 182.472656 C 215.371094 183.613281 213.785156 184.320312 212.792969 185.296875 C 212.382812 185.699219 211.785156 186.292969 211.832031 186.921875 C 211.921875 188.066406 214.097656 187.535156 214.785156 187.515625 C 215.078125 187.507812 215.640625 187.472656 215.730469 187.851562 C 215.824219 188.230469 215.183594 188.707031 214.953125 188.910156 C 214.105469 189.664062 212.726562 190.414062 212.261719 191.492188 C 211.703125 192.796875 214.675781 192.273438 214.578125 193.210938 C 214.523438 193.734375 213.621094 194.210938 213.246094 194.472656 C 212.140625 195.25 210.066406 196.304688 209.773438 197.769531 C 209.566406 198.789062 211.050781 198.277344 211.105469 199.214844 C 211.207031 200.878906 209.542969 202.421875 210.34375 204.117188 C 211.121094 205.769531 213.816406 206.5 215.421875 206.898438 C 220.308594 208.113281 226.234375 208.054688 230.992188 206.285156 C 231.601562 206.058594 232.070312 205.769531 232.433594 205.4375 Z M 232.4375 205.4375 " fill-opacity="1" fill-rule="nonzero"/><path fill="#0c274e" d="M 156.371094 223.488281 C 158.582031 221.984375 158.355469 220.921875 160.183594 218.949219 C 162.101562 216.878906 166.210938 213.746094 168.652344 212.203125 C 169.601562 211.601562 169.46875 212.785156 169.484375 213.410156 C 169.492188 213.605469 169.476562 214.042969 169.789062 213.949219 C 170.863281 213.621094 171.78125 212.460938 172.46875 211.640625 C 173.949219 209.878906 175.210938 208.007812 176.988281 206.519531 C 177.382812 206.1875 178.347656 205.320312 178.933594 205.515625 C 179.386719 205.667969 179.285156 206.875 179.917969 206.335938 C 181.832031 204.707031 183.238281 202.554688 185.25 201.011719 C 186.425781 200.105469 187.992188 200.136719 189.050781 198.996094 C 190.546875 197.386719 191.75 194.453125 194.082031 193.894531 C 194.949219 193.6875 196.441406 194.9375 197.09375 195.355469 C 200.175781 197.347656 203.402344 199.582031 206.199219 201.953125 C 208.40625 203.824219 210.414062 206.023438 212.855469 207.597656 C 213.695312 208.140625 215.351562 209.085938 216.402344 208.878906 C 216.828125 208.792969 216.394531 207.785156 216.898438 207.910156 C 217.855469 208.140625 218.851562 208.914062 219.628906 209.492188 C 221.644531 210.988281 223.332031 212.875 225.273438 214.460938 C 227.5 216.273438 230.339844 217.035156 232.625 218.746094 C 233.625 219.496094 234.765625 220.660156 234.902344 221.976562 C 235.09375 223.796875 232.425781 225.738281 231.296875 226.867188 C 227.039062 231.121094 222.203125 234.667969 216.855469 237.4375 C 212.414062 239.734375 207.683594 241.464844 202.761719 242.375 C 184.816406 245.695312 167.632812 237.269531 156.375 223.488281 " fill-opacity="1" fill-rule="nonzero"/><path fill="#437eb1" d="M 229.742188 210.320312 C 226.574219 208.773438 223.074219 206.859375 219.550781 206.296875 C 218.664062 206.15625 218.667969 207.605469 217.839844 207.367188 C 215.867188 206.796875 214.398438 204.128906 212.0625 204.734375 C 211.660156 204.835938 212.410156 206.445312 212.179688 206.351562 C 209.835938 205.375 209.046875 202.320312 207.433594 200.605469 C 206.789062 199.921875 206.480469 201.058594 206.003906 200.832031 C 204.59375 200.152344 203.699219 198.242188 202.101562 197.890625 C 201.925781 197.851562 201.953125 198.355469 201.953125 198.429688 C 201.949219 198.984375 202.011719 199.539062 202.046875 200.09375 C 202.046875 200.113281 202.074219 200.667969 202.011719 200.636719 C 200.492188 199.886719 199.695312 197.585938 198.675781 196.328125 C 198.28125 195.839844 197.625 195.082031 196.925781 195.097656 C 196.097656 195.117188 196.359375 196.921875 196.441406 197.425781 C 196.457031 197.53125 196.648438 198.210938 196.398438 198.132812 C 195.699219 197.921875 195.082031 196.46875 194.753906 195.910156 C 193.671875 194.050781 192.597656 191.125 190.433594 190.269531 C 189.792969 190.015625 189.300781 188.882812 188.96875 188.324219 C 188.941406 188.28125 188.65625 187.660156 188.628906 187.660156 C 188.5625 187.660156 188.542969 188.050781 188.539062 188.0625 C 188.507812 188.492188 188.617188 188.832031 188.777344 189.222656 C 189.148438 190.140625 189.546875 191.070312 190 191.949219 C 190.347656 192.621094 190.828125 193.285156 190.914062 194.058594 C 191.054688 195.3125 189.46875 195.609375 188.609375 196.042969 C 187.992188 196.351562 187.644531 196.789062 188.039062 197.449219 C 188.425781 198.097656 189.175781 198.59375 189.757812 199.046875 C 190.957031 199.980469 192.210938 200.851562 193.371094 201.835938 C 193.96875 202.347656 195.089844 203.175781 195.113281 204.0625 C 195.136719 205.03125 192.714844 204.296875 192.265625 204.191406 C 192.152344 204.167969 191.066406 203.960938 191.128906 204.042969 C 193.039062 206.574219 196.5 207.507812 198.902344 209.457031 C 199.5 209.949219 200.171875 210.34375 200.742188 210.875 C 200.855469 210.976562 201.222656 211.273438 201.09375 211.46875 C 201.019531 211.574219 200.640625 211.449219 200.554688 211.429688 C 200.039062 211.300781 199.535156 211.125 199.035156 210.949219 C 197.320312 210.359375 195.613281 209.695312 193.84375 209.273438 C 193.480469 209.191406 192.285156 208.816406 191.976562 209.199219 C 191.8125 209.398438 193.167969 209.980469 193.308594 210.070312 C 194.597656 210.867188 195.910156 211.714844 197.039062 212.730469 C 197.140625 212.824219 198.089844 213.636719 197.753906 213.851562 C 197.214844 214.1875 196.082031 214.03125 195.492188 213.96875 C 193.46875 213.757812 191.539062 212.980469 189.503906 212.867188 C 188.972656 212.835938 187.148438 212.46875 186.898438 213.082031 C 186.769531 213.398438 187.171875 213.707031 187.386719 213.859375 C 188.042969 214.335938 188.8125 214.613281 189.539062 214.949219 C 192.027344 216.105469 194.5625 217.242188 197.164062 218.125 C 197.675781 218.296875 199.535156 218.710938 199.621094 219.359375 C 199.65625 219.613281 199.214844 219.628906 199.0625 219.632812 C 198.425781 219.636719 197.78125 219.46875 197.167969 219.3125 C 195.152344 218.804688 193.152344 218.101562 191.070312 217.890625 C 190.460938 217.828125 189.140625 217.675781 188.675781 218.234375 C 188.429688 218.535156 189.824219 219.351562 190.042969 219.492188 C 191.234375 220.269531 192.449219 221.023438 193.574219 221.894531 C 193.90625 222.148438 194.648438 222.609375 194.703125 223.078125 C 194.773438 223.699219 193.734375 223.699219 193.371094 223.6875 C 192.292969 223.660156 191.230469 223.398438 190.152344 223.398438 C 189.769531 223.398438 189.105469 223.410156 188.910156 223.824219 C 188.722656 224.230469 189.296875 224.707031 189.546875 224.9375 C 190.195312 225.535156 192.382812 226.800781 191.738281 227.910156 C 190.738281 229.636719 187.988281 227.367188 186.5625 228.136719 C 186.042969 228.421875 186.261719 228.925781 186.449219 229.367188 C 186.730469 230.027344 187.300781 230.921875 186.851562 231.625 C 186.285156 232.519531 184.820312 232.507812 184.359375 233.457031 C 184.21875 233.738281 184.496094 234.105469 184.644531 234.328125 C 184.65625 234.34375 184.957031 234.757812 184.929688 234.773438 C 184.496094 234.996094 183.171875 234.128906 183.511719 235.441406 C 183.808594 236.589844 186.007812 236.835938 186.945312 236.972656 C 190.609375 237.523438 194.609375 237.085938 198.21875 236.347656 C 212.398438 233.445312 222.886719 222.507812 229.746094 210.316406 " fill-opacity="1" fill-rule="nonzero"/><path fill="#ffffff" d="M 214.683594 122.304688 C 214.921875 122.5 214.480469 122.640625 214.332031 122.691406 C 213.8125 122.871094 213.261719 122.96875 212.722656 123.066406 C 210.679688 123.429688 208.632812 123.574219 206.566406 123.734375 C 203.628906 123.960938 200.660156 124.203125 197.722656 123.890625 C 195.148438 123.617188 192.65625 122.886719 190.171875 122.191406 C 183.695312 120.375 177.21875 120.214844 170.539062 120.125 C 167.011719 120.078125 163.492188 119.859375 159.96875 119.964844 C 157.167969 120.046875 154.347656 120.40625 151.546875 120.34375 C 150.894531 120.328125 149.191406 120.390625 148.710938 119.851562 C 148.585938 119.710938 149.074219 119.789062 149.257812 119.757812 C 149.632812 119.6875 150.003906 119.605469 150.375 119.511719 C 151.757812 119.15625 153.109375 118.679688 154.5 118.363281 C 155.035156 118.242188 155.574219 118.140625 156.105469 118.003906 C 156.132812 118 156.671875 117.867188 156.628906 117.796875 C 156.550781 117.664062 155.9375 117.695312 155.796875 117.6875 C 155 117.636719 154.199219 117.648438 153.398438 117.695312 C 149.957031 117.898438 146.5625 118.371094 143.113281 118.519531 C 142.085938 118.566406 141.054688 118.632812 140.035156 118.773438 C 139.894531 118.792969 138.304688 118.953125 138.390625 118.804688 C 138.597656 118.460938 139.296875 118.378906 139.644531 118.320312 C 140.820312 118.136719 142.035156 118.183594 143.222656 118.207031 C 147.71875 118.296875 152.382812 117.492188 156.828125 116.867188 C 158.382812 116.644531 159.933594 116.402344 161.480469 116.117188 C 162.050781 116.011719 162.621094 115.902344 163.1875 115.789062 C 163.359375 115.753906 163.527344 115.71875 163.699219 115.683594 C 163.773438 115.667969 163.96875 115.683594 163.917969 115.625 C 163.792969 115.480469 162.957031 115.601562 162.753906 115.605469 C 161.511719 115.617188 160.269531 115.660156 159.03125 115.71875 C 153.847656 115.976562 148.742188 116.78125 143.578125 117.195312 C 142.109375 117.316406 140.628906 117.398438 139.152344 117.34375 C 139.039062 117.339844 137.785156 117.242188 137.792969 117.222656 C 137.824219 117.121094 138.332031 117.050781 138.421875 117.027344 C 138.929688 116.886719 139.429688 116.714844 139.921875 116.53125 C 141.257812 116.03125 142.570312 115.460938 143.835938 114.804688 C 144.632812 114.390625 145.492188 113.777344 146.390625 113.621094 C 147.15625 113.488281 147.972656 113.582031 148.75 113.554688 C 148.902344 113.546875 149.417969 113.589844 149.53125 113.441406 C 149.738281 113.171875 149.117188 112.484375 149.019531 112.210938 C 148.609375 111.09375 148.410156 109.910156 148.445312 108.722656 C 148.527344 105.796875 149.988281 102.839844 152.984375 101.917969 C 154.394531 101.484375 155.5 102.222656 156.449219 103.195312 C 156.832031 103.589844 157.5625 104.589844 158.226562 104.425781 C 158.9375 104.253906 158.46875 102.710938 159.058594 102.3125 C 159.410156 102.074219 160.007812 102.535156 160.273438 102.722656 C 160.417969 102.824219 160.847656 103.121094 160.675781 103.070312 C 159.632812 102.769531 160.910156 101.160156 161.542969 101.09375 C 162.226562 101.023438 162.871094 101.84375 163.25 102.308594 C 163.371094 102.457031 163.488281 102.613281 163.601562 102.773438 C 163.667969 102.867188 163.738281 103.160156 163.796875 103.058594 C 164.238281 102.304688 164.222656 101.011719 164.578125 100.15625 C 165.59375 97.71875 167.921875 97.347656 170.292969 97.859375 C 171.664062 98.15625 173.46875 98.710938 174.210938 100.007812 C 174.835938 101.09375 174.886719 103.300781 176.074219 104.023438 C 175.96875 103.65625 177.003906 103.152344 177.136719 103.066406 C 178.277344 102.324219 179.535156 102.324219 180.859375 102.433594 C 181.671875 102.5 182.265625 102.828125 182.507812 103.664062 C 182.59375 103.957031 182.59375 104.589844 182.875 104.773438 C 183.15625 104.957031 183.9375 104.566406 184.183594 104.484375 C 184.917969 104.242188 185.660156 104.109375 186.394531 104.449219 C 187.574219 105 187.308594 106.699219 188.21875 107.273438 C 189.125 107.84375 190.585938 107.292969 191.609375 107.816406 C 192.175781 108.105469 192.542969 108.710938 192.753906 109.289062 C 192.828125 109.492188 192.746094 110.171875 192.972656 110.277344 C 193.152344 110.359375 193.402344 110.085938 193.570312 110.039062 C 194 109.914062 194.550781 109.988281 194.972656 110.097656 C 198.417969 111 202.042969 111.003906 205.5625 111.625 C 207.789062 112.019531 210.015625 112.417969 212.238281 112.828125 C 212.835938 112.9375 213.492188 113.054688 214.082031 113.214844 C 214.351562 113.285156 214.898438 113.394531 214.898438 113.394531 C 214.898438 113.394531 214.527344 113.296875 214.339844 113.289062 C 214.265625 113.285156 213.683594 113.289062 213.589844 113.289062 C 212.578125 113.324219 211.5625 113.351562 210.546875 113.382812 C 207.015625 113.488281 203.476562 113.644531 199.941406 113.632812 C 198.746094 113.628906 197.546875 113.585938 196.351562 113.570312 C 195.984375 113.566406 195.621094 113.578125 195.253906 113.570312 C 195.019531 113.5625 194.410156 113.347656 194.554688 113.527344 C 194.972656 114.046875 196.117188 113.839844 196.675781 114.203125 C 198.375 115.308594 200.792969 115.867188 202.375 118.460938 C 202.675781 118.945312 203.160156 119.214844 203.738281 119.277344 C 205.828125 119.429688 211.019531 120.066406 214.683594 122.304688 " fill-opacity="0.2706" fill-rule="nonzero"/><path fill="#ffffff" d="M 170.386719 116.296875 C 167.167969 115.914062 163.90625 115.351562 160.71875 115.550781 C 160.707031 115.535156 161.1875 115.304688 161.292969 115.257812 C 161.304688 115.25 161.316406 115.246094 161.328125 115.234375 C 161.53125 115.101562 161.777344 114.960938 162.011719 114.8125 C 162.273438 114.644531 162.175781 114.238281 161.867188 114.214844 C 156.398438 113.769531 150.871094 114.59375 145.402344 113.941406 C 145.390625 113.941406 145.382812 113.941406 145.375 113.941406 C 143.960938 113.90625 147.371094 113.328125 147.710938 113.328125 C 147.734375 113.328125 147.753906 113.324219 147.777344 113.316406 C 152.21875 112.222656 158.128906 112.242188 161.367188 109.03125 C 161.398438 109 161.421875 108.960938 161.441406 108.917969 C 162.664062 105.753906 169.648438 100.601562 174.761719 103.601562 C 174.777344 103.613281 174.792969 103.625 174.808594 103.636719 C 176.007812 104.667969 177.460938 104.035156 179.410156 104.640625 C 179.546875 104.683594 179.636719 104.8125 179.636719 104.953125 C 179.636719 105.074219 179.65625 105.203125 179.667969 105.191406 C 180.410156 104.601562 180.671875 103.988281 181.65625 103.652344 C 183.207031 103.121094 184.347656 103.84375 185.472656 104.796875 C 185.5 104.824219 185.527344 104.851562 185.546875 104.886719 C 186.808594 107.085938 187.984375 105.472656 189.765625 106.179688 C 189.785156 106.191406 189.804688 106.199219 189.824219 106.210938 C 190.839844 106.808594 190.523438 108.375 191.25 109.160156 C 191.964844 109.9375 193.320312 109.222656 194.113281 109.71875 C 194.976562 110.261719 195.273438 111.488281 196.300781 111.820312 C 196.320312 111.828125 196.34375 111.832031 196.363281 111.835938 C 198.488281 112.164062 200.582031 110.867188 202.742188 111.03125 C 204.167969 111.058594 205.296875 112.910156 206.597656 113.46875 C 207.125 113.695312 208.273438 113.132812 208.777344 113.066406 C 210.253906 112.871094 211.773438 112.957031 213.257812 112.882812 C 214.636719 112.859375 216.210938 112.578125 217.625 112.734375 C 218.011719 112.777344 218.003906 113.335938 217.617188 113.378906 C 216.617188 113.539062 215.644531 113.738281 214.636719 113.828125 C 207.046875 114.550781 199.347656 112.601562 191.839844 114.160156 C 191.800781 114.167969 191.132812 114.277344 191.390625 114.449219 C 192.632812 115.285156 194.875 115.171875 196.273438 115.316406 C 200.628906 115.875 205.058594 115.722656 209.429688 116.007812 C 209.835938 116.035156 209.828125 116.636719 209.417969 116.652344 C 196.546875 117.160156 183.242188 117.195312 170.386719 116.300781 Z M 170.386719 116.296875 " fill-opacity="0.5882" fill-rule="nonzero"/><path fill="#ffffff" d="M 135.257812 136.867188 C 135.257812 136.867188 137.921875 134.046875 141.980469 134.289062 C 145.859375 134.503906 143.527344 128.6875 150.644531 128.445312 C 151.28125 128.414062 151.824219 127.929688 151.914062 127.324219 C 152.128906 126.144531 151.703125 125.144531 154.003906 124.449219 C 155.730469 123.902344 155.941406 121.417969 158.789062 122.054688 C 159.636719 122.238281 160.515625 122.207031 161.304688 121.875 C 162.667969 121.296875 164.636719 121.238281 166.90625 123.902344 C 169.601562 127.113281 171.296875 124.113281 173.480469 125.597656 C 174.570312 126.324219 174.871094 127.292969 174.902344 128.050781 C 174.933594 128.6875 175.328125 129.234375 175.929688 129.414062 C 177.171875 129.777344 179.140625 130.746094 181.351562 132.414062 C 182.261719 133.078125 183.351562 133.441406 184.472656 133.410156 C 190.226562 133.230469 208.097656 132.683594 210.214844 133.289062 C 212.730469 134.019531 197.617188 135.984375 184.898438 136.136719 C 182.625 136.257812 185.714844 136.652344 184.503906 137.105469 C 183.292969 137.5625 171.660156 137.773438 171.660156 137.773438 L 134.742188 139.710938 L 135.257812 136.863281 Z M 135.257812 136.867188 " fill-opacity="0.3412" fill-rule="nonzero"/><path fill="#ffffff" d="M 179.289062 134.960938 C 179.121094 135.398438 179.691406 135.640625 180.011719 135.769531 C 180.921875 136.144531 181.917969 136.300781 182.882812 136.472656 C 186.191406 137.070312 189.429688 137.714844 192.789062 137.988281 C 193.625 138.058594 194.464844 138.003906 195.296875 138.089844 C 195.523438 138.113281 196.058594 138.117188 196.203125 138.335938 C 196.296875 138.476562 195.902344 138.523438 195.835938 138.535156 C 195.394531 138.617188 194.945312 138.652344 194.5 138.691406 C 192.558594 138.847656 190.617188 138.847656 188.671875 138.882812 C 186.652344 138.921875 184.566406 138.378906 182.617188 138.894531 C 182.292969 138.980469 181.894531 138.78125 181.5625 138.777344 C 180.300781 138.769531 179.128906 138.523438 177.859375 138.367188 C 176.425781 138.191406 174.933594 138.242188 173.488281 138.160156 C 172.800781 138.121094 171.585938 137.769531 170.910156 137.949219 C 170.832031 137.96875 171.054688 138.007812 171.128906 138.035156 C 171.265625 138.082031 171.398438 138.148438 171.539062 138.179688 C 171.953125 138.285156 172.386719 138.363281 172.808594 138.46875 C 174.375 138.875 176.054688 139.082031 177.648438 139.351562 C 178.0625 139.421875 178.476562 139.496094 178.890625 139.535156 C 179.097656 139.550781 179.597656 139.480469 179.492188 139.660156 C 179.484375 139.679688 179.023438 139.628906 178.972656 139.625 C 178.445312 139.609375 177.9375 139.476562 177.417969 139.441406 C 174.886719 139.265625 172.304688 139.320312 169.757812 139.308594 C 163.875 139.273438 157.992188 139.433594 152.105469 139.429688 C 150.152344 139.429688 148.144531 139.398438 146.195312 139.230469 C 145.414062 139.167969 144.605469 139.175781 143.863281 138.910156 C 143.613281 138.820312 143.363281 138.738281 143.113281 138.652344 C 143.015625 138.621094 142.722656 138.558594 142.824219 138.53125 C 143.75 138.285156 144.992188 138.515625 145.964844 138.46875 C 148.515625 138.339844 151.0625 137.980469 153.617188 137.835938 C 154.71875 137.773438 154.691406 137.8125 155.800781 137.710938 C 155.8125 137.710938 157.277344 137.695312 157.210938 137.453125 C 157.164062 137.273438 156.378906 137.082031 156.28125 137.046875 C 155.597656 136.8125 154.699219 136.582031 153.972656 136.667969 C 152.9375 136.789062 151.894531 136.695312 150.847656 136.722656 C 148.378906 136.78125 145.949219 136.824219 143.480469 136.710938 C 142.125 136.648438 140.351562 136.78125 139.097656 136.175781 C 138.648438 135.957031 138.21875 135.683594 137.8125 135.394531 C 137.664062 135.285156 137.109375 134.609375 137.246094 134.769531 C 137.394531 134.125 137.574219 133.4375 137.820312 132.800781 C 137.417969 132.707031 138.339844 131.5625 138.472656 131.425781 C 139.070312 130.816406 140.160156 130.128906 141.066406 130.1875 C 141.59375 130.21875 142.144531 131.039062 142.414062 131.417969 C 142.449219 131.464844 142.679688 131.722656 142.640625 131.792969 C 142.597656 131.859375 142.378906 131.539062 142.375 131.488281 C 142.34375 131.230469 142.417969 130.972656 142.519531 130.734375 C 142.847656 129.941406 143.386719 129.199219 144.3125 129.257812 C 144.648438 129.28125 145.230469 129.507812 145.460938 129.746094 C 145.535156 129.828125 145.570312 130.058594 145.570312 130.058594 C 145.570312 130.058594 145.871094 129.382812 146.054688 129.0625 C 146.148438 128.902344 146.226562 128.734375 146.335938 128.585938 C 146.691406 128.082031 146.75 127.953125 147.15625 127.683594 C 147.628906 127.371094 148.121094 127.09375 148.710938 127.214844 C 148.867188 127.25 149 127.335938 149.136719 127.414062 C 149.210938 127.457031 149.429688 127.585938 149.355469 127.542969 C 148.539062 127.066406 149.378906 125.460938 149.746094 125.015625 C 150.757812 123.785156 152.910156 123.089844 154.355469 123.863281 C 154.816406 124.113281 155.234375 124.835938 155.386719 125.304688 C 155.4375 125.460938 155.328125 125.910156 155.328125 125.910156 C 155.296875 125.800781 155.625 125.238281 155.644531 125.113281 C 155.804688 124.046875 156.050781 122.777344 157.054688 122.195312 C 157.300781 122.046875 157.578125 121.957031 157.859375 122.074219 C 158.003906 122.136719 158.164062 122.484375 158.242188 122.347656 C 158.429688 122.023438 158.308594 121.21875 158.519531 120.789062 C 159.261719 119.28125 161.195312 118.386719 162.824219 118.78125 C 163.527344 118.953125 163.882812 119.402344 163.96875 120.128906 C 163.984375 120.261719 163.949219 121.199219 164.121094 121.300781 C 164.125 121.304688 164.414062 120.789062 164.464844 120.714844 C 164.773438 120.257812 165.117188 119.816406 165.734375 119.882812 C 166.542969 119.964844 167.253906 120.375 167.5 121.15625 C 167.539062 121.28125 167.773438 122.859375 168.082031 122.777344 C 168.484375 122.671875 168.875 122.089844 169.28125 121.902344 C 170.171875 121.496094 171.152344 121.847656 171.9375 122.308594 C 172.316406 122.527344 172.617188 122.800781 172.621094 123.261719 C 172.625 123.53125 172.226562 123.914062 172.457031 124.050781 C 172.578125 124.121094 172.667969 123.863281 172.796875 123.808594 C 173.160156 123.652344 173.59375 123.542969 173.988281 123.617188 C 174.316406 123.679688 174.566406 123.851562 174.820312 124.054688 C 176.320312 125.25 174.96875 126.285156 174.578125 127.675781 C 174.53125 127.84375 175.324219 127.917969 175.402344 128.035156 C 175.523438 128.210938 175.265625 128.519531 175.179688 128.671875 C 175.140625 128.738281 175.296875 128.570312 175.363281 128.527344 C 175.472656 128.457031 175.570312 128.371094 175.683594 128.3125 C 176.195312 128.058594 176.542969 127.964844 177.074219 128.210938 C 177.898438 128.585938 177.738281 129.390625 177.921875 130.050781 C 177.960938 130.191406 178.109375 129.800781 178.246094 129.742188 C 178.5 129.636719 178.769531 129.578125 179.042969 129.5625 C 179.554688 129.527344 179.640625 129.980469 179.953125 130.28125 C 180 130.328125 180.050781 130.359375 180.101562 130.386719 C 179.875 130.234375 181.148438 130.042969 181.289062 130.453125 C 181.351562 130.644531 181.34375 130.871094 181.316406 131.066406 C 181.3125 131.125 181.222656 131.207031 181.273438 131.234375 C 181.375 131.292969 181.558594 131.09375 181.601562 131.0625 C 181.863281 130.871094 182.164062 130.730469 182.496094 130.773438 C 182.949219 130.828125 183.3125 131.167969 183.710938 131.359375 C 184.128906 131.558594 184.621094 131.574219 185.078125 131.578125 C 186.371094 131.589844 187.652344 131.359375 188.957031 131.40625 C 191.601562 131.503906 194.242188 131.777344 196.875 132.027344 C 197.960938 132.132812 199.039062 132.316406 200.121094 132.40625 C 200.488281 132.433594 200.832031 132.53125 201.195312 132.589844 C 201.390625 132.621094 201.375 132.621094 201.566406 132.667969 C 201.601562 132.675781 201.691406 132.714844 201.664062 132.695312 C 201.308594 132.492188 200.238281 132.742188 199.925781 132.746094 C 198.742188 132.773438 197.554688 132.757812 196.375 132.746094 C 192.621094 132.699219 188.855469 132.808594 185.113281 133.03125 C 184.21875 133.082031 183.324219 133.183594 182.433594 133.234375 C 182.078125 133.257812 181.542969 133.175781 181.195312 133.269531 C 180.449219 133.472656 179.710938 134.25 179.332031 134.898438 C 179.316406 134.921875 179.300781 134.941406 179.289062 134.960938 " fill-opacity="0.6" fill-rule="nonzero"/><g clip-path="url(#166e52f4c9)"><g clip-path="url(#d4ba3a674a)"><path fill="#0c274e" d="M 254.6875 267.921875 L 97.242188 250.261719 L 120.195312 45.625 L 277.644531 63.285156 Z M 254.6875 267.921875 " fill-opacity="1" fill-rule="nonzero"/></g></g><path fill="#afc4dd" d="M 188.246094 231.234375 C 184.070312 231.234375 179.992188 230.730469 176.074219 229.820312 C 153.609375 224.441406 136.785156 204.441406 136.785156 180.476562 L 136.785156 130.1875 C 136.785156 102.039062 159.792969 79.554688 187.957031 79.394531 L 188.246094 79.394531 C 202.390625 79.394531 215.265625 85.121094 224.570312 94.300781 C 233.90625 103.519531 239.671875 115.121094 239.671875 130.15625 L 239.671875 180.445312 L 239.703125 180.445312 C 239.703125 208.371094 216.539062 231.234375 188.246094 231.234375 M 188.246094 67.980469 C 155.871094 67.980469 126.621094 96.726562 126.683594 128.207031 L 126.683594 185.160156 C 126.589844 215.339844 157.0625 243.722656 187.640625 243.722656 C 187.84375 243.722656 188.042969 243.722656 188.246094 243.71875 C 200.480469 243.71875 212.300781 239.976562 222.273438 233.59375 C 238.746094 223.058594 250.152344 205.257812 250.152344 185.128906 L 250.152344 128.175781 C 250.152344 104.902344 237.855469 86.378906 220.136719 76.316406 C 210.707031 70.9375 199.714844 67.980469 188.242188 67.980469 " fill-opacity="1" fill-rule="nonzero"/><path fill="#0c274e" d="M 229.03125 98.382812 L 227.003906 100.65625 C 226.367188 101.382812 225.214844 101.441406 224.488281 100.804688 C 223.761719 100.171875 223.703125 99.019531 224.335938 98.292969 L 226.367188 96.019531 C 227.003906 95.292969 228.152344 95.234375 228.878906 95.871094 C 229.609375 96.535156 229.699219 97.65625 229.03125 98.382812 Z M 229.03125 98.382812 " fill-opacity="1" fill-rule="nonzero"/><path fill="#0c274e" d="M 269.316406 146.761719 L 267.289062 149.03125 C 266.652344 149.757812 265.5 149.820312 264.773438 149.183594 C 264.046875 148.546875 263.988281 147.394531 264.621094 146.667969 L 266.652344 144.398438 C 267.289062 143.671875 268.441406 143.609375 269.164062 144.246094 C 269.894531 144.882812 269.953125 146.035156 269.316406 146.761719 Z M 269.316406 146.761719 " fill-opacity="1" fill-rule="nonzero"/><path fill="#0c274e" d="M 240.183594 98.945312 L 238.15625 101.21875 C 237.519531 101.945312 236.367188 102.003906 235.640625 101.371094 C 234.914062 100.734375 234.851562 99.582031 235.488281 98.855469 L 237.519531 96.585938 C 238.15625 95.855469 239.304688 95.796875 240.03125 96.433594 C 240.757812 97.070312 240.820312 98.191406 240.183594 98.945312 Z M 240.183594 98.945312 " fill-opacity="1" fill-rule="nonzero"/><path fill="#437eb1" d="M 224.246094 98.394531 L 226.304688 96.089844 L 223.476562 97.496094 Z M 224.246094 98.394531 " fill-opacity="1" fill-rule="evenodd"/><path fill="#ffffff" d="M 186.839844 224.101562 C 187.785156 223.957031 188.671875 224.617188 188.820312 225.570312 C 188.964844 226.527344 188.316406 227.417969 187.367188 227.5625 C 186.421875 227.707031 185.535156 227.050781 185.390625 226.09375 C 185.242188 225.140625 185.894531 224.246094 186.839844 224.101562 Z M 186.910156 224.773438 C 187.496094 224.683594 188.042969 225.085938 188.132812 225.675781 C 188.222656 226.261719 187.820312 226.808594 187.234375 226.898438 C 186.652344 226.988281 186.101562 226.582031 186.015625 225.996094 C 185.925781 225.410156 186.328125 224.863281 186.910156 224.773438 Z M 186.910156 224.773438 " fill-opacity="0.2588" fill-rule="evenodd"/><g clip-path="url(#4fda83ec05)"><path fill="#0c274e" d="M 216.789062 148.003906 C 216.808594 147.980469 216.828125 147.953125 216.847656 147.925781 C 214.316406 149.910156 211.789062 151.863281 209.273438 153.773438 C 171.640625 182.109375 136.328125 200.296875 119.691406 202.625 C 115.179688 203.261719 112.03125 202.683594 110.605469 200.867188 C 108.246094 197.839844 110.636719 191.386719 116.785156 182.636719 L 116.785156 148.199219 C 87.589844 179.03125 73.476562 208.832031 84.105469 222.398438 C 90.921875 231.09375 107.425781 232.847656 129.777344 223.21875 C 153.65625 212.925781 184.1875 189.664062 216.78125 148.015625 C 216.8125 147.988281 216.835938 147.96875 216.847656 147.957031 C 216.828125 147.972656 216.808594 147.988281 216.789062 148.003906 Z M 216.789062 148.003906 " fill-opacity="1" fill-rule="nonzero"/><path fill="#fba708" d="M 216.847656 147.957031 C 184.230469 189.628906 153.671875 212.921875 129.777344 223.21875 C 107.425781 232.847656 90.921875 231.09375 84.105469 222.398438 C 73.476562 208.832031 87.589844 179.03125 116.785156 148.199219 L 116.785156 157.617188 C 100.308594 172.914062 86.226562 197.082031 88.4375 211.558594 C 89.011719 215.34375 91.617188 218.492188 95.160156 219.917969 C 134.625 235.785156 215.636719 149.230469 216.847656 147.957031 Z M 216.847656 147.957031 " fill-opacity="1" fill-rule="nonzero"/></g><g mask="url(#80d3a50af8)"><g transform="matrix(1, 0, 0, 1, 98, 147)"><g clip-path="url(#e59207c3cb)"><g clip-path="url(#2c4dfdb382)"><path fill="#38b6ff" d="M 118.847656 0.957031 C 117.515625 2.078125 21.269531 81.367188 2.761719 61.863281 C -3.65625 55.078125 7.546875 34.332031 18.785156 22.886719 L 18.785156 35.636719 C 12.636719 44.386719 10.246094 50.839844 12.605469 53.867188 C 14.03125 55.683594 17.179688 56.261719 21.691406 55.625 C 39.441406 53.140625 78.449219 32.605469 118.847656 0.957031 Z M 118.847656 0.957031 " fill-opacity="1" fill-rule="nonzero"/></g></g></g></g><path fill="#0c274e" d="M 268.984375 130.433594 L 266.800781 132.886719 C 266.199219 133.585938 265.136719 133.644531 264.441406 133.039062 C 263.742188 132.433594 263.683594 131.375 264.289062 130.679688 L 266.46875 128.222656 C 267.074219 127.527344 268.136719 127.46875 268.832031 128.074219 C 269.527344 128.707031 269.589844 129.769531 268.984375 130.433594 Z M 268.984375 130.433594 " fill-opacity="1" fill-rule="nonzero"/><g clip-path="url(#04d873d195)"><path fill="#0c274e" d="M 199.296875 139.992188 L 201.992188 137.628906 L 219.105469 140.445312 L 240.304688 117.460938 L 231.582031 109.464844 L 201.296875 99.832031 L 205.234375 96.046875 L 255.328125 102.253906 C 255.839844 102.316406 256.355469 102.132812 256.71875 101.800781 L 270.832031 88.171875 C 271.589844 87.445312 272.46875 86.898438 273.4375 86.535156 C 275.980469 85.597656 280.917969 84.265625 283.28125 86.71875 C 285.792969 89.351562 283.433594 94.625 282.160156 96.984375 C 281.765625 97.742188 281.21875 98.40625 280.585938 98.984375 L 266.289062 111.855469 C 265.925781 112.1875 265.714844 112.671875 265.714844 113.15625 L 267.078125 163.765625 L 263.230469 167.21875 L 255.960938 135.902344 L 248.875 126.816406 L 224.253906 146.378906 L 225.375 163.160156 L 222.980469 165.582031 L 215.53125 150.953125 C 215.074219 150.074219 214.410156 149.347656 213.5625 148.832031 L 199.296875 139.988281 Z M 199.296875 139.992188 " fill-opacity="1" fill-rule="nonzero"/></g><path fill="#437eb1" d="M 240.308594 117.433594 L 231.554688 109.421875 L 221.613281 106.257812 L 230.746094 109.953125 L 238.203125 117.6875 L 234.402344 123.863281 L 240.308594 117.429688 Z M 240.308594 117.433594 " fill-opacity="1" fill-rule="evenodd"/><path fill="#437eb1" d="M 248.878906 126.808594 L 256.320312 136.007812 L 258.46875 146.65625 L 255.742188 136.785156 L 248.488281 128.773438 L 242.015625 132.269531 L 248.878906 126.804688 Z M 248.878906 126.808594 " fill-opacity="1" fill-rule="evenodd"/><g fill="#0c274e" fill-opacity="1"><g transform="translate(37.817558, 291.25879)"><g><path d="M 20.46875 0 L 2.921875 0 L 2.921875 -26.21875 L 20.46875 -26.21875 C 27.644531 -26.21875 32.800781 -25.210938 35.9375 -23.203125 C 38.476562 -21.585938 39.921875 -19.382812 40.265625 -16.59375 C 40.429688 -15.382812 40.515625 -14.21875 40.515625 -13.09375 C 40.515625 -11.988281 40.4375 -10.828125 40.28125 -9.609375 C 40.125 -8.398438 39.71875 -7.226562 39.0625 -6.09375 C 38.40625 -4.957031 37.359375 -3.929688 35.921875 -3.015625 C 34.492188 -2.097656 32.535156 -1.363281 30.046875 -0.8125 C 27.554688 -0.269531 24.363281 0 20.46875 0 Z M 19.421875 -6.484375 C 25.015625 -6.484375 28.175781 -7.894531 28.90625 -10.71875 C 29.101562 -11.507812 29.203125 -12.300781 29.203125 -13.09375 C 29.203125 -13.90625 29.097656 -14.703125 28.890625 -15.484375 C 28.691406 -16.273438 28.265625 -16.988281 27.609375 -17.625 C 26.960938 -18.257812 25.988281 -18.769531 24.6875 -19.15625 C 23.382812 -19.539062 21.628906 -19.734375 19.421875 -19.734375 L 13.921875 -19.734375 L 13.921875 -6.484375 Z M 19.421875 -6.484375 "/></g></g></g><g fill="#0c274e" fill-opacity="1"><g transform="translate(78.649034, 291.25879)"><g><path d="M 44.03125 0 L 32.890625 0 L 30.421875 -4.296875 L 13.890625 -4.296875 L 11.421875 0 L 0.28125 0 L 17.046875 -26.203125 L 27.265625 -26.203125 Z M 26.71875 -10.78125 L 22.171875 -18.734375 L 17.59375 -10.78125 Z M 26.71875 -10.78125 "/></g></g></g><g fill="#0c274e" fill-opacity="1"><g transform="translate(121.818399, 291.25879)"><g><path d="M 13.921875 0 L 2.921875 0 L 2.921875 -26.21875 L 13.921875 -26.21875 Z M 13.921875 0 "/></g></g></g><g fill="#0c274e" fill-opacity="1"><g transform="translate(137.535817, 291.25879)"><g><path d="M 33.53125 0 L 2.921875 0 L 2.921875 -26.21875 L 13.921875 -26.21875 L 13.921875 -6.484375 L 33.53125 -6.484375 Z M 33.53125 0 "/></g></g></g><g fill="#0c274e" fill-opacity="1"><g transform="translate(170.659559, 291.25879)"><g><path d="M 25.578125 0 L 14.578125 0 L 14.578125 -12.421875 L 0.28125 -26.21875 L 12.46875 -26.21875 L 20.078125 -18.375 L 27.6875 -26.21875 L 39.875 -26.21875 L 25.578125 -12.421875 Z M 25.578125 0 "/></g></g></g><g fill="#0c274e" fill-opacity="1"><g transform="translate(209.664558, 291.25879)"><g><path d="M 22.359375 0 L 11.359375 0 L 11.359375 -19.734375 L 1.09375 -19.734375 L 1.09375 -26.21875 L 32.640625 -26.21875 L 32.640625 -19.734375 L 22.359375 -19.734375 Z M 22.359375 0 "/></g></g></g><g fill="#0c274e" fill-opacity="1"><g transform="translate(242.258622, 291.25879)"><g><path d="M 38.71875 0 L 28.328125 0 C 27.847656 -0.65625 27.507812 -1.492188 27.3125 -2.515625 C 27.144531 -3.304688 26.890625 -4.082031 26.546875 -4.84375 C 26.203125 -5.613281 25.613281 -6.25 24.78125 -6.75 C 23.945312 -7.257812 22.707031 -7.53125 21.0625 -7.5625 L 13.921875 -7.5625 L 13.921875 0 L 2.921875 0 L 2.921875 -26.21875 L 20.8125 -26.21875 C 25.082031 -26.21875 28.53125 -25.894531 31.15625 -25.25 C 33.78125 -24.613281 35.695312 -23.609375 36.90625 -22.234375 C 38.113281 -20.867188 38.71875 -19.085938 38.71875 -16.890625 C 38.71875 -15.046875 38.300781 -13.492188 37.46875 -12.234375 C 36.632812 -10.984375 35.316406 -9.992188 33.515625 -9.265625 C 35.253906 -8.546875 36.378906 -7.679688 36.890625 -6.671875 C 37.410156 -5.671875 37.734375 -4.566406 37.859375 -3.359375 C 37.984375 -2.285156 38.269531 -1.164062 38.71875 0 Z M 13.921875 -14.03125 L 20.203125 -14.046875 C 21.960938 -14.046875 23.347656 -14.125 24.359375 -14.28125 C 25.367188 -14.445312 26.113281 -14.664062 26.59375 -14.9375 C 27.070312 -15.207031 27.378906 -15.507812 27.515625 -15.84375 C 27.648438 -16.1875 27.71875 -16.535156 27.71875 -16.890625 C 27.71875 -17.234375 27.648438 -17.578125 27.515625 -17.921875 C 27.378906 -18.265625 27.070312 -18.570312 26.59375 -18.84375 C 26.113281 -19.125 25.367188 -19.34375 24.359375 -19.5 C 23.347656 -19.65625 21.960938 -19.734375 20.203125 -19.734375 L 13.921875 -19.734375 Z M 13.921875 -14.03125 "/></g></g></g><g fill="#0c274e" fill-opacity="1"><g transform="translate(281.300161, 291.25879)"><g><path d="M 13.921875 0 L 2.921875 0 L 2.921875 -26.21875 L 13.921875 -26.21875 Z M 13.921875 0 "/></g></g></g><g fill="#0c274e" fill-opacity="1"><g transform="translate(297.01759, 291.25879)"><g><path d="M 13.921875 0 L 2.921875 0 L 2.921875 -26.21875 L 20.8125 -26.21875 C 25.082031 -26.21875 28.53125 -25.894531 31.15625 -25.25 C 33.78125 -24.613281 35.695312 -23.609375 36.90625 -22.234375 C 38.113281 -20.867188 38.71875 -19.085938 38.71875 -16.890625 C 38.71875 -14.691406 38.113281 -12.90625 36.90625 -11.53125 C 35.695312 -10.164062 33.78125 -9.160156 31.15625 -8.515625 C 28.53125 -7.878906 25.082031 -7.5625 20.8125 -7.5625 L 13.921875 -7.5625 Z M 13.921875 -14.03125 L 20.203125 -14.046875 C 21.960938 -14.046875 23.347656 -14.113281 24.359375 -14.25 C 25.367188 -14.394531 26.113281 -14.59375 26.59375 -14.84375 C 27.070312 -15.101562 27.378906 -15.40625 27.515625 -15.75 C 27.648438 -16.101562 27.71875 -16.484375 27.71875 -16.890625 C 27.71875 -17.296875 27.648438 -17.671875 27.515625 -18.015625 C 27.378906 -18.367188 27.070312 -18.671875 26.59375 -18.921875 C 26.113281 -19.179688 25.367188 -19.378906 24.359375 -19.515625 C 23.347656 -19.660156 21.960938 -19.734375 20.203125 -19.734375 L 13.921875 -19.734375 Z M 13.921875 -14.03125 "/></g></g></g><g fill="#437eb1" fill-opacity="1"><g transform="translate(95.511342, 310.949219)"><g><path d="M 6.171875 -7.71875 C 6.109375 -7.625 6.046875 -7.550781 5.984375 -7.5 C 5.921875 -7.457031 5.84375 -7.4375 5.75 -7.4375 C 5.644531 -7.4375 5.535156 -7.46875 5.421875 -7.53125 C 5.316406 -7.601562 5.1875 -7.675781 5.03125 -7.75 C 4.882812 -7.832031 4.710938 -7.90625 4.515625 -7.96875 C 4.328125 -8.039062 4.101562 -8.078125 3.84375 -8.078125 C 3.382812 -8.078125 3.039062 -7.972656 2.8125 -7.765625 C 2.582031 -7.566406 2.46875 -7.300781 2.46875 -6.96875 C 2.46875 -6.757812 2.53125 -6.585938 2.65625 -6.453125 C 2.789062 -6.316406 2.957031 -6.195312 3.15625 -6.09375 C 3.363281 -5.988281 3.59375 -5.894531 3.84375 -5.8125 C 4.101562 -5.738281 4.367188 -5.65625 4.640625 -5.5625 C 4.921875 -5.46875 5.1875 -5.351562 5.4375 -5.21875 C 5.695312 -5.09375 5.929688 -4.929688 6.140625 -4.734375 C 6.347656 -4.546875 6.515625 -4.3125 6.640625 -4.03125 C 6.765625 -3.757812 6.828125 -3.421875 6.828125 -3.015625 C 6.828125 -2.585938 6.75 -2.179688 6.59375 -1.796875 C 6.445312 -1.421875 6.226562 -1.085938 5.9375 -0.796875 C 5.65625 -0.515625 5.300781 -0.289062 4.875 -0.125 C 4.457031 0.03125 3.984375 0.109375 3.453125 0.109375 C 3.148438 0.109375 2.847656 0.078125 2.546875 0.015625 C 2.242188 -0.046875 1.953125 -0.128906 1.671875 -0.234375 C 1.398438 -0.347656 1.140625 -0.484375 0.890625 -0.640625 C 0.648438 -0.796875 0.4375 -0.96875 0.25 -1.15625 L 0.828125 -2.09375 C 0.878906 -2.15625 0.941406 -2.207031 1.015625 -2.25 C 1.097656 -2.300781 1.179688 -2.328125 1.265625 -2.328125 C 1.390625 -2.328125 1.515625 -2.28125 1.640625 -2.1875 C 1.773438 -2.101562 1.925781 -2.007812 2.09375 -1.90625 C 2.269531 -1.800781 2.46875 -1.703125 2.6875 -1.609375 C 2.914062 -1.523438 3.191406 -1.484375 3.515625 -1.484375 C 3.972656 -1.484375 4.328125 -1.585938 4.578125 -1.796875 C 4.828125 -2.015625 4.953125 -2.332031 4.953125 -2.75 C 4.953125 -2.988281 4.890625 -3.179688 4.765625 -3.328125 C 4.640625 -3.484375 4.476562 -3.609375 4.28125 -3.703125 C 4.082031 -3.804688 3.851562 -3.894531 3.59375 -3.96875 C 3.332031 -4.039062 3.066406 -4.117188 2.796875 -4.203125 C 2.523438 -4.296875 2.257812 -4.398438 2 -4.515625 C 1.738281 -4.640625 1.503906 -4.800781 1.296875 -5 C 1.097656 -5.207031 0.9375 -5.457031 0.8125 -5.75 C 0.6875 -6.050781 0.625 -6.425781 0.625 -6.875 C 0.625 -7.226562 0.691406 -7.570312 0.828125 -7.90625 C 0.972656 -8.238281 1.179688 -8.535156 1.453125 -8.796875 C 1.722656 -9.054688 2.054688 -9.265625 2.453125 -9.421875 C 2.859375 -9.578125 3.316406 -9.65625 3.828125 -9.65625 C 4.398438 -9.65625 4.929688 -9.566406 5.421875 -9.390625 C 5.910156 -9.210938 6.328125 -8.96875 6.671875 -8.65625 Z M 6.171875 -7.71875 "/></g></g></g><g fill="#437eb1" fill-opacity="1"><g transform="translate(106.055639, 310.949219)"><g><path d="M 9.1875 -9.5625 L 9.1875 0 L 7.203125 0 L 7.203125 -4.109375 L 2.984375 -4.109375 L 2.984375 0 L 1 0 L 1 -9.5625 L 2.984375 -9.5625 L 2.984375 -5.5 L 7.203125 -5.5 L 7.203125 -9.5625 Z M 9.1875 -9.5625 "/></g></g></g><g fill="#437eb1" fill-opacity="1"><g transform="translate(119.528032, 310.949219)"><g><path d="M 6.046875 -3.625 L 5.015625 -6.546875 C 4.953125 -6.703125 4.882812 -6.882812 4.8125 -7.09375 C 4.75 -7.300781 4.6875 -7.523438 4.625 -7.765625 C 4.5625 -7.515625 4.492188 -7.285156 4.421875 -7.078125 C 4.359375 -6.867188 4.296875 -6.691406 4.234375 -6.546875 L 3.203125 -3.625 Z M 9.359375 0 L 7.828125 0 C 7.660156 0 7.519531 -0.0390625 7.40625 -0.125 C 7.300781 -0.207031 7.222656 -0.3125 7.171875 -0.4375 L 6.53125 -2.265625 L 2.71875 -2.265625 L 2.078125 -0.4375 C 2.035156 -0.320312 1.957031 -0.21875 1.84375 -0.125 C 1.726562 -0.0390625 1.585938 0 1.421875 0 L -0.125 0 L 3.609375 -9.5625 L 5.640625 -9.5625 Z M 9.359375 0 "/></g></g></g><g fill="#437eb1" fill-opacity="1"><g transform="translate(132.05948, 310.949219)"><g><path d="M 3.984375 -5.03125 C 4.304688 -5.03125 4.582031 -5.070312 4.8125 -5.15625 C 5.050781 -5.238281 5.242188 -5.347656 5.390625 -5.484375 C 5.546875 -5.628906 5.65625 -5.796875 5.71875 -5.984375 C 5.789062 -6.179688 5.828125 -6.394531 5.828125 -6.625 C 5.828125 -7.070312 5.675781 -7.421875 5.375 -7.671875 C 5.070312 -7.921875 4.613281 -8.046875 4 -8.046875 L 2.984375 -8.046875 L 2.984375 -5.03125 Z M 8.625 0 L 6.84375 0 C 6.5 0 6.253906 -0.125 6.109375 -0.375 L 4.296875 -3.3125 C 4.222656 -3.425781 4.140625 -3.507812 4.046875 -3.5625 C 3.953125 -3.613281 3.820312 -3.640625 3.65625 -3.640625 L 2.984375 -3.640625 L 2.984375 0 L 1 0 L 1 -9.5625 L 4 -9.5625 C 4.664062 -9.5625 5.234375 -9.488281 5.703125 -9.34375 C 6.179688 -9.207031 6.570312 -9.015625 6.875 -8.765625 C 7.1875 -8.523438 7.410156 -8.234375 7.546875 -7.890625 C 7.691406 -7.546875 7.765625 -7.171875 7.765625 -6.765625 C 7.765625 -6.453125 7.71875 -6.15625 7.625 -5.875 C 7.53125 -5.59375 7.394531 -5.332031 7.21875 -5.09375 C 7.050781 -4.863281 6.84375 -4.65625 6.59375 -4.46875 C 6.34375 -4.289062 6.0625 -4.148438 5.75 -4.046875 C 5.875 -3.972656 5.988281 -3.882812 6.09375 -3.78125 C 6.207031 -3.6875 6.304688 -3.570312 6.390625 -3.4375 Z M 8.625 0 "/></g></g></g><g fill="#437eb1" fill-opacity="1"><g transform="translate(143.900026, 310.949219)"><g><path d="M 2.984375 -8.015625 L 2.984375 -5.546875 L 6.171875 -5.546875 L 6.171875 -4.0625 L 2.984375 -4.0625 L 2.984375 -1.546875 L 7.09375 -1.546875 L 7.09375 0 L 1 0 L 1 -9.5625 L 7.09375 -9.5625 L 7.09375 -8.015625 Z M 2.984375 -8.015625 "/></g></g></g><g fill="#437eb1" fill-opacity="1"><g transform="translate(154.746999, 310.949219)"><g/></g></g><g fill="#437eb1" fill-opacity="1"><g transform="translate(161.165635, 310.949219)"><g><path d="M 3.140625 -4.359375 C 2.835938 -4.140625 2.617188 -3.898438 2.484375 -3.640625 C 2.359375 -3.378906 2.296875 -3.101562 2.296875 -2.8125 C 2.296875 -2.582031 2.332031 -2.375 2.40625 -2.1875 C 2.476562 -2.007812 2.578125 -1.851562 2.703125 -1.71875 C 2.835938 -1.59375 2.992188 -1.492188 3.171875 -1.421875 C 3.359375 -1.347656 3.554688 -1.3125 3.765625 -1.3125 C 4.109375 -1.3125 4.425781 -1.359375 4.71875 -1.453125 C 5.007812 -1.554688 5.273438 -1.703125 5.515625 -1.890625 Z M 9.59375 0 L 7.796875 0 C 7.710938 0 7.632812 -0.00390625 7.5625 -0.015625 C 7.488281 -0.0234375 7.421875 -0.0390625 7.359375 -0.0625 C 7.296875 -0.09375 7.234375 -0.128906 7.171875 -0.171875 C 7.117188 -0.210938 7.0625 -0.265625 7 -0.328125 L 6.453125 -0.90625 C 6.035156 -0.582031 5.570312 -0.332031 5.0625 -0.15625 C 4.5625 0.0195312 4.019531 0.109375 3.4375 0.109375 C 3.0625 0.109375 2.691406 0.046875 2.328125 -0.078125 C 1.972656 -0.210938 1.65625 -0.398438 1.375 -0.640625 C 1.09375 -0.878906 0.863281 -1.164062 0.6875 -1.5 C 0.519531 -1.84375 0.4375 -2.226562 0.4375 -2.65625 C 0.4375 -2.957031 0.484375 -3.238281 0.578125 -3.5 C 0.671875 -3.757812 0.800781 -4 0.96875 -4.21875 C 1.132812 -4.445312 1.332031 -4.65625 1.5625 -4.84375 C 1.800781 -5.03125 2.054688 -5.1875 2.328125 -5.3125 C 2.109375 -5.632812 1.945312 -5.953125 1.84375 -6.265625 C 1.75 -6.578125 1.703125 -6.882812 1.703125 -7.1875 C 1.703125 -7.519531 1.757812 -7.835938 1.875 -8.140625 C 2 -8.441406 2.175781 -8.703125 2.40625 -8.921875 C 2.644531 -9.148438 2.929688 -9.328125 3.265625 -9.453125 C 3.609375 -9.585938 4 -9.65625 4.4375 -9.65625 C 4.84375 -9.65625 5.203125 -9.59375 5.515625 -9.46875 C 5.835938 -9.351562 6.109375 -9.191406 6.328125 -8.984375 C 6.546875 -8.785156 6.71875 -8.554688 6.84375 -8.296875 C 6.96875 -8.046875 7.039062 -7.78125 7.0625 -7.5 L 5.90625 -7.25 C 5.6875 -7.207031 5.53125 -7.296875 5.4375 -7.515625 C 5.351562 -7.742188 5.234375 -7.929688 5.078125 -8.078125 C 4.921875 -8.234375 4.707031 -8.3125 4.4375 -8.3125 C 4.269531 -8.3125 4.117188 -8.28125 3.984375 -8.21875 C 3.859375 -8.15625 3.75 -8.070312 3.65625 -7.96875 C 3.5625 -7.875 3.492188 -7.757812 3.453125 -7.625 C 3.410156 -7.488281 3.390625 -7.347656 3.390625 -7.203125 C 3.390625 -7.078125 3.398438 -6.957031 3.421875 -6.84375 C 3.441406 -6.726562 3.476562 -6.613281 3.53125 -6.5 C 3.59375 -6.382812 3.671875 -6.265625 3.765625 -6.140625 C 3.859375 -6.015625 3.96875 -5.882812 4.09375 -5.75 L 6.546875 -3.171875 C 6.679688 -3.441406 6.789062 -3.722656 6.875 -4.015625 C 6.957031 -4.316406 7.007812 -4.625 7.03125 -4.9375 C 7.039062 -5.050781 7.078125 -5.140625 7.140625 -5.203125 C 7.210938 -5.265625 7.300781 -5.296875 7.40625 -5.296875 L 8.546875 -5.296875 C 8.546875 -4.691406 8.460938 -4.117188 8.296875 -3.578125 C 8.128906 -3.035156 7.894531 -2.539062 7.59375 -2.09375 Z M 9.59375 0 "/></g></g></g><g fill="#437eb1" fill-opacity="1"><g transform="translate(174.039253, 310.949219)"><g/></g></g><g fill="#437eb1" fill-opacity="1"><g transform="translate(180.457889, 310.949219)"><g><path d="M 9.5625 -4.78125 C 9.5625 -4.082031 9.441406 -3.4375 9.203125 -2.84375 C 8.972656 -2.257812 8.644531 -1.757812 8.21875 -1.34375 C 7.789062 -0.925781 7.273438 -0.597656 6.671875 -0.359375 C 6.078125 -0.117188 5.410156 0 4.671875 0 L 1 0 L 1 -9.5625 L 4.671875 -9.5625 C 5.410156 -9.5625 6.078125 -9.441406 6.671875 -9.203125 C 7.273438 -8.960938 7.789062 -8.628906 8.21875 -8.203125 C 8.644531 -7.785156 8.972656 -7.285156 9.203125 -6.703125 C 9.441406 -6.117188 9.5625 -5.476562 9.5625 -4.78125 Z M 7.546875 -4.78125 C 7.546875 -5.28125 7.476562 -5.726562 7.34375 -6.125 C 7.207031 -6.53125 7.015625 -6.867188 6.765625 -7.140625 C 6.523438 -7.421875 6.226562 -7.632812 5.875 -7.78125 C 5.519531 -7.9375 5.117188 -8.015625 4.671875 -8.015625 L 2.984375 -8.015625 L 2.984375 -1.546875 L 4.671875 -1.546875 C 5.117188 -1.546875 5.519531 -1.617188 5.875 -1.765625 C 6.226562 -1.910156 6.523438 -2.125 6.765625 -2.40625 C 7.015625 -2.6875 7.207031 -3.023438 7.34375 -3.421875 C 7.476562 -3.828125 7.546875 -4.28125 7.546875 -4.78125 Z M 7.546875 -4.78125 "/></g></g></g><g fill="#437eb1" fill-opacity="1"><g transform="translate(193.765776, 310.949219)"><g><path d="M 2.984375 0 L 1 0 L 1 -9.5625 L 2.984375 -9.5625 Z M 2.984375 0 "/></g></g></g><g fill="#437eb1" fill-opacity="1"><g transform="translate(201.046392, 310.949219)"><g><path d="M 6.171875 -7.71875 C 6.109375 -7.625 6.046875 -7.550781 5.984375 -7.5 C 5.921875 -7.457031 5.84375 -7.4375 5.75 -7.4375 C 5.644531 -7.4375 5.535156 -7.46875 5.421875 -7.53125 C 5.316406 -7.601562 5.1875 -7.675781 5.03125 -7.75 C 4.882812 -7.832031 4.710938 -7.90625 4.515625 -7.96875 C 4.328125 -8.039062 4.101562 -8.078125 3.84375 -8.078125 C 3.382812 -8.078125 3.039062 -7.972656 2.8125 -7.765625 C 2.582031 -7.566406 2.46875 -7.300781 2.46875 -6.96875 C 2.46875 -6.757812 2.53125 -6.585938 2.65625 -6.453125 C 2.789062 -6.316406 2.957031 -6.195312 3.15625 -6.09375 C 3.363281 -5.988281 3.59375 -5.894531 3.84375 -5.8125 C 4.101562 -5.738281 4.367188 -5.65625 4.640625 -5.5625 C 4.921875 -5.46875 5.1875 -5.351562 5.4375 -5.21875 C 5.695312 -5.09375 5.929688 -4.929688 6.140625 -4.734375 C 6.347656 -4.546875 6.515625 -4.3125 6.640625 -4.03125 C 6.765625 -3.757812 6.828125 -3.421875 6.828125 -3.015625 C 6.828125 -2.585938 6.75 -2.179688 6.59375 -1.796875 C 6.445312 -1.421875 6.226562 -1.085938 5.9375 -0.796875 C 5.65625 -0.515625 5.300781 -0.289062 4.875 -0.125 C 4.457031 0.03125 3.984375 0.109375 3.453125 0.109375 C 3.148438 0.109375 2.847656 0.078125 2.546875 0.015625 C 2.242188 -0.046875 1.953125 -0.128906 1.671875 -0.234375 C 1.398438 -0.347656 1.140625 -0.484375 0.890625 -0.640625 C 0.648438 -0.796875 0.4375 -0.96875 0.25 -1.15625 L 0.828125 -2.09375 C 0.878906 -2.15625 0.941406 -2.207031 1.015625 -2.25 C 1.097656 -2.300781 1.179688 -2.328125 1.265625 -2.328125 C 1.390625 -2.328125 1.515625 -2.28125 1.640625 -2.1875 C 1.773438 -2.101562 1.925781 -2.007812 2.09375 -1.90625 C 2.269531 -1.800781 2.46875 -1.703125 2.6875 -1.609375 C 2.914062 -1.523438 3.191406 -1.484375 3.515625 -1.484375 C 3.972656 -1.484375 4.328125 -1.585938 4.578125 -1.796875 C 4.828125 -2.015625 4.953125 -2.332031 4.953125 -2.75 C 4.953125 -2.988281 4.890625 -3.179688 4.765625 -3.328125 C 4.640625 -3.484375 4.476562 -3.609375 4.28125 -3.703125 C 4.082031 -3.804688 3.851562 -3.894531 3.59375 -3.96875 C 3.332031 -4.039062 3.066406 -4.117188 2.796875 -4.203125 C 2.523438 -4.296875 2.257812 -4.398438 2 -4.515625 C 1.738281 -4.640625 1.503906 -4.800781 1.296875 -5 C 1.097656 -5.207031 0.9375 -5.457031 0.8125 -5.75 C 0.6875 -6.050781 0.625 -6.425781 0.625 -6.875 C 0.625 -7.226562 0.691406 -7.570312 0.828125 -7.90625 C 0.972656 -8.238281 1.179688 -8.535156 1.453125 -8.796875 C 1.722656 -9.054688 2.054688 -9.265625 2.453125 -9.421875 C 2.859375 -9.578125 3.316406 -9.65625 3.828125 -9.65625 C 4.398438 -9.65625 4.929688 -9.566406 5.421875 -9.390625 C 5.910156 -9.210938 6.328125 -8.96875 6.671875 -8.65625 Z M 6.171875 -7.71875 "/></g></g></g><g fill="#437eb1" fill-opacity="1"><g transform="translate(211.590692, 310.949219)"><g><path d="M 7.515625 -2.34375 C 7.617188 -2.34375 7.707031 -2.304688 7.78125 -2.234375 L 8.5625 -1.390625 C 8.175781 -0.898438 7.695312 -0.523438 7.125 -0.265625 C 6.550781 -0.015625 5.867188 0.109375 5.078125 0.109375 C 4.367188 0.109375 3.726562 -0.0078125 3.15625 -0.25 C 2.582031 -0.5 2.09375 -0.835938 1.6875 -1.265625 C 1.289062 -1.703125 0.984375 -2.21875 0.765625 -2.8125 C 0.554688 -3.414062 0.453125 -4.070312 0.453125 -4.78125 C 0.453125 -5.257812 0.503906 -5.710938 0.609375 -6.140625 C 0.710938 -6.566406 0.863281 -6.957031 1.0625 -7.3125 C 1.257812 -7.675781 1.492188 -8 1.765625 -8.28125 C 2.046875 -8.570312 2.363281 -8.820312 2.71875 -9.03125 C 3.070312 -9.238281 3.453125 -9.394531 3.859375 -9.5 C 4.273438 -9.601562 4.722656 -9.65625 5.203125 -9.65625 C 5.546875 -9.65625 5.875 -9.625 6.1875 -9.5625 C 6.507812 -9.507812 6.804688 -9.425781 7.078125 -9.3125 C 7.347656 -9.195312 7.597656 -9.0625 7.828125 -8.90625 C 8.054688 -8.757812 8.265625 -8.59375 8.453125 -8.40625 L 7.78125 -7.5 C 7.738281 -7.4375 7.6875 -7.382812 7.625 -7.34375 C 7.570312 -7.300781 7.488281 -7.28125 7.375 -7.28125 C 7.269531 -7.28125 7.164062 -7.316406 7.0625 -7.390625 C 6.957031 -7.460938 6.828125 -7.546875 6.671875 -7.640625 C 6.515625 -7.734375 6.316406 -7.816406 6.078125 -7.890625 C 5.847656 -7.960938 5.550781 -8 5.1875 -8 C 4.789062 -8 4.425781 -7.925781 4.09375 -7.78125 C 3.757812 -7.632812 3.472656 -7.425781 3.234375 -7.15625 C 2.992188 -6.882812 2.804688 -6.546875 2.671875 -6.140625 C 2.535156 -5.742188 2.46875 -5.289062 2.46875 -4.78125 C 2.46875 -4.269531 2.539062 -3.8125 2.6875 -3.40625 C 2.832031 -3.007812 3.03125 -2.671875 3.28125 -2.390625 C 3.53125 -2.109375 3.816406 -1.894531 4.140625 -1.75 C 4.472656 -1.613281 4.828125 -1.546875 5.203125 -1.546875 C 5.429688 -1.546875 5.632812 -1.554688 5.8125 -1.578125 C 6 -1.597656 6.171875 -1.632812 6.328125 -1.6875 C 6.484375 -1.738281 6.628906 -1.804688 6.765625 -1.890625 C 6.898438 -1.972656 7.039062 -2.082031 7.1875 -2.21875 C 7.226562 -2.25 7.273438 -2.273438 7.328125 -2.296875 C 7.390625 -2.328125 7.453125 -2.34375 7.515625 -2.34375 Z M 7.515625 -2.34375 "/></g></g></g><g fill="#437eb1" fill-opacity="1"><g transform="translate(223.556267, 310.949219)"><g><path d="M 10.234375 -4.78125 C 10.234375 -4.082031 10.113281 -3.429688 9.875 -2.828125 C 9.644531 -2.234375 9.316406 -1.71875 8.890625 -1.28125 C 8.460938 -0.851562 7.945312 -0.515625 7.34375 -0.265625 C 6.738281 -0.015625 6.070312 0.109375 5.34375 0.109375 C 4.601562 0.109375 3.929688 -0.015625 3.328125 -0.265625 C 2.734375 -0.515625 2.21875 -0.851562 1.78125 -1.28125 C 1.351562 -1.71875 1.019531 -2.234375 0.78125 -2.828125 C 0.550781 -3.429688 0.4375 -4.082031 0.4375 -4.78125 C 0.4375 -5.476562 0.550781 -6.125 0.78125 -6.71875 C 1.019531 -7.3125 1.351562 -7.828125 1.78125 -8.265625 C 2.21875 -8.703125 2.734375 -9.039062 3.328125 -9.28125 C 3.929688 -9.53125 4.601562 -9.65625 5.34375 -9.65625 C 6.070312 -9.65625 6.738281 -9.53125 7.34375 -9.28125 C 7.945312 -9.039062 8.460938 -8.703125 8.890625 -8.265625 C 9.316406 -7.828125 9.644531 -7.3125 9.875 -6.71875 C 10.113281 -6.125 10.234375 -5.476562 10.234375 -4.78125 Z M 8.21875 -4.78125 C 8.21875 -5.28125 8.148438 -5.726562 8.015625 -6.125 C 7.878906 -6.519531 7.6875 -6.859375 7.4375 -7.140625 C 7.195312 -7.421875 6.898438 -7.632812 6.546875 -7.78125 C 6.191406 -7.925781 5.789062 -8 5.34375 -8 C 4.894531 -8 4.492188 -7.925781 4.140625 -7.78125 C 3.785156 -7.632812 3.484375 -7.421875 3.234375 -7.140625 C 2.984375 -6.859375 2.789062 -6.519531 2.65625 -6.125 C 2.53125 -5.726562 2.46875 -5.28125 2.46875 -4.78125 C 2.46875 -4.28125 2.53125 -3.828125 2.65625 -3.421875 C 2.789062 -3.023438 2.984375 -2.6875 3.234375 -2.40625 C 3.484375 -2.132812 3.785156 -1.925781 4.140625 -1.78125 C 4.492188 -1.632812 4.894531 -1.5625 5.34375 -1.5625 C 5.789062 -1.5625 6.191406 -1.632812 6.546875 -1.78125 C 6.898438 -1.925781 7.195312 -2.132812 7.4375 -2.40625 C 7.6875 -2.6875 7.878906 -3.023438 8.015625 -3.421875 C 8.148438 -3.828125 8.21875 -4.28125 8.21875 -4.78125 Z M 8.21875 -4.78125 "/></g></g></g><g fill="#437eb1" fill-opacity="1"><g transform="translate(237.522155, 310.949219)"><g><path d="M 9.359375 -9.5625 L 5.515625 0 L 3.734375 0 L -0.125 -9.5625 L 1.46875 -9.5625 C 1.644531 -9.5625 1.785156 -9.519531 1.890625 -9.4375 C 2.003906 -9.351562 2.085938 -9.25 2.140625 -9.125 L 4.203125 -3.609375 C 4.273438 -3.410156 4.347656 -3.1875 4.421875 -2.9375 C 4.503906 -2.695312 4.582031 -2.441406 4.65625 -2.171875 C 4.707031 -2.441406 4.765625 -2.695312 4.828125 -2.9375 C 4.898438 -3.1875 4.976562 -3.410156 5.0625 -3.609375 L 7.109375 -9.125 C 7.148438 -9.226562 7.226562 -9.328125 7.34375 -9.421875 C 7.457031 -9.515625 7.597656 -9.5625 7.765625 -9.5625 Z M 9.359375 -9.5625 "/></g></g></g><g fill="#437eb1" fill-opacity="1"><g transform="translate(250.053606, 310.949219)"><g><path d="M 2.984375 -8.015625 L 2.984375 -5.546875 L 6.171875 -5.546875 L 6.171875 -4.0625 L 2.984375 -4.0625 L 2.984375 -1.546875 L 7.09375 -1.546875 L 7.09375 0 L 1 0 L 1 -9.5625 L 7.09375 -9.5625 L 7.09375 -8.015625 Z M 2.984375 -8.015625 "/></g></g></g><g fill="#437eb1" fill-opacity="1"><g transform="translate(260.900579, 310.949219)"><g><path d="M 3.984375 -5.03125 C 4.304688 -5.03125 4.582031 -5.070312 4.8125 -5.15625 C 5.050781 -5.238281 5.242188 -5.347656 5.390625 -5.484375 C 5.546875 -5.628906 5.65625 -5.796875 5.71875 -5.984375 C 5.789062 -6.179688 5.828125 -6.394531 5.828125 -6.625 C 5.828125 -7.070312 5.675781 -7.421875 5.375 -7.671875 C 5.070312 -7.921875 4.613281 -8.046875 4 -8.046875 L 2.984375 -8.046875 L 2.984375 -5.03125 Z M 8.625 0 L 6.84375 0 C 6.5 0 6.253906 -0.125 6.109375 -0.375 L 4.296875 -3.3125 C 4.222656 -3.425781 4.140625 -3.507812 4.046875 -3.5625 C 3.953125 -3.613281 3.820312 -3.640625 3.65625 -3.640625 L 2.984375 -3.640625 L 2.984375 0 L 1 0 L 1 -9.5625 L 4 -9.5625 C 4.664062 -9.5625 5.234375 -9.488281 5.703125 -9.34375 C 6.179688 -9.207031 6.570312 -9.015625 6.875 -8.765625 C 7.1875 -8.523438 7.410156 -8.234375 7.546875 -7.890625 C 7.691406 -7.546875 7.765625 -7.171875 7.765625 -6.765625 C 7.765625 -6.453125 7.71875 -6.15625 7.625 -5.875 C 7.53125 -5.59375 7.394531 -5.332031 7.21875 -5.09375 C 7.050781 -4.863281 6.84375 -4.65625 6.59375 -4.46875 C 6.34375 -4.289062 6.0625 -4.148438 5.75 -4.046875 C 5.875 -3.972656 5.988281 -3.882812 6.09375 -3.78125 C 6.207031 -3.6875 6.304688 -3.570312 6.390625 -3.4375 Z M 8.625 0 "/></g></g></g></svg>