<svg width="1280" height="720" viewBox="0 0 1280 720" fill="none" xmlns="http://www.w3.org/2000/svg">
<path d="M76.8333 120C76.8333 143.564 95.9359 162.667 119.5 162.667C143.064 162.667 162.167 143.564 162.167 120C162.167 96.4359 143.064 77.3333 119.5 77.3333C95.9359 77.3333 76.8333 96.4359 76.8333 120ZM344.5 112L349.485 105.743L344.5 112ZM531.5 485.5L533.329 477.712L531.5 485.5ZM1101.83 590C1101.83 613.564 1120.94 632.667 1144.5 632.667C1168.06 632.667 1187.17 613.564 1187.17 590C1187.17 566.436 1168.06 547.333 1144.5 547.333C1120.94 547.333 1101.83 566.436 1101.83 590ZM123.752 126.777C127.429 124.469 131.596 122.052 136.19 119.601L128.661 105.484C123.759 108.098 119.266 110.702 115.248 113.223L123.752 126.777ZM162.511 107.411C171.09 103.978 180.325 100.773 190.01 98.0335L185.656 82.6374C175.393 85.54 165.628 88.9301 156.567 92.556L162.511 107.411ZM218.272 91.7528C227.681 90.2466 237.279 89.3131 246.92 89.1209L246.601 73.1241C236.145 73.3326 225.805 74.3432 215.743 75.954L218.272 91.7528ZM275.387 90.871C284.673 92.2582 293.851 94.4957 302.798 97.7321L308.241 82.6861C298.217 79.0605 288 76.5778 277.751 75.0466L275.387 90.871ZM328.035 110.08C331.933 112.549 335.764 115.268 339.515 118.257L349.485 105.743C345.281 102.393 340.979 99.3383 336.593 96.562L328.035 110.08ZM339.515 118.257C343.196 121.19 346.647 124.465 349.891 128.063L361.774 117.348C357.983 113.144 353.898 109.259 349.485 105.743L339.515 118.257ZM366.432 152.184C370.892 160.57 374.82 169.796 378.35 179.721L393.425 174.36C389.695 163.871 385.465 153.898 380.558 144.671L366.432 152.184ZM387.237 208.98C389.778 218.676 392.096 228.739 394.295 239.062L409.944 235.727C407.711 225.246 405.337 214.93 402.715 204.924L387.237 208.98ZM400.426 269.559C402.386 279.7 404.34 290.019 406.356 300.27L422.055 297.183C420.045 286.96 418.112 276.749 416.136 266.523L400.426 269.559ZM412.752 331.067C415.066 341.459 417.56 351.749 420.334 361.805L435.758 357.55C433.073 347.815 430.642 337.794 428.369 327.588L412.752 331.067ZM429.993 392.231C433.777 402.535 438.036 412.45 442.913 421.799L457.099 414.399C452.596 405.768 448.605 396.5 445.013 386.716L429.993 392.231ZM460.596 449.313C467.531 458.016 475.396 465.833 484.372 472.512L493.923 459.676C486.165 453.903 479.275 447.08 473.109 439.342L460.596 449.313ZM513.709 488.464C518.788 490.368 524.105 491.981 529.671 493.288L533.329 477.712C528.409 476.556 523.746 475.139 519.322 473.481L513.709 488.464ZM529.671 493.288C535.237 494.596 541.014 495.599 546.975 496.336L548.94 480.457C543.48 479.782 538.273 478.873 533.329 477.712L529.671 493.288ZM581.538 497.952C592.479 497.771 603.89 497.042 615.672 495.912L614.145 479.985C602.678 481.085 591.699 481.781 581.272 481.954L581.538 497.952ZM649.274 491.86C660.142 490.327 671.266 488.582 682.58 486.719L679.981 470.932C668.741 472.783 657.746 474.506 647.039 476.017L649.274 491.86ZM715.754 481.086C726.637 479.207 737.635 477.3 748.734 475.434L746.08 459.655C734.938 461.529 723.898 463.443 713.032 465.319L715.754 481.086ZM781.739 470.111C792.711 468.438 803.722 466.873 814.735 465.482L812.732 449.608C801.554 451.019 790.404 452.604 779.326 454.294L781.739 470.111ZM847.766 461.901C858.851 460.918 869.891 460.182 880.846 459.759L880.229 443.771C868.975 444.205 857.667 444.96 846.352 445.964L847.766 461.901ZM913.825 459.512C924.921 459.804 935.873 460.503 946.638 461.682L948.379 445.777C937.129 444.545 925.734 443.82 914.245 443.518L913.825 459.512ZM978.899 466.848C989.599 469.153 1000.05 472.049 1010.2 475.611L1015.5 460.514C1004.66 456.713 993.569 453.642 982.269 451.207L978.899 466.848ZM1039.86 488.45C1049.31 493.399 1058.43 499.089 1067.19 505.6L1076.73 492.762C1067.28 485.734 1057.45 479.601 1047.28 474.276L1039.86 488.45ZM1091.4 526.755C1098.72 534.226 1105.72 542.465 1112.35 551.541L1125.27 542.105C1118.2 532.421 1110.7 523.59 1102.83 515.555L1091.4 526.755ZM1129.71 578.821C1132.32 583.53 1134.85 588.415 1137.3 593.483L1151.7 586.517C1149.13 581.189 1146.46 576.04 1143.7 571.065L1129.71 578.821Z" fill="#0C274E"/>
<path d="M460.122 316.201L442.44 337.52L442.671 338.125L470.123 342.369L479.083 365.815L431.515 357.47L401.984 396.32L392.792 372.269L410.755 350.323L410.524 349.718L382.503 345.344L373.369 321.445L421.168 330.394L451.104 292.604L460.122 316.201Z" fill="#38B6FF"/>
<path d="M1009.17 415.647L1007.78 443.309L1008.33 443.656L1032.85 430.615L1054.07 444.026L1010.98 465.829L1010.59 514.627L988.827 500.87L990.069 472.537L989.522 472.191L964.462 485.469L942.835 471.799L986.475 450.342L987.819 402.149L1009.17 415.647Z" fill="#38B6FF"/>
<path d="M1146.5 514.5C1150.33 514.5 1153.6 513.138 1156.33 510.415C1159.06 507.692 1160.42 504.415 1160.42 500.583C1160.41 496.752 1159.05 493.477 1156.33 490.758C1153.61 488.04 1150.34 486.676 1146.5 486.667C1142.66 486.657 1139.39 488.021 1136.67 490.758C1133.96 493.495 1132.6 496.77 1132.58 500.583C1132.57 504.396 1133.93 507.674 1136.67 510.415C1139.42 513.157 1142.69 514.519 1146.5 514.5ZM1146.5 584.083C1127.83 568.195 1113.88 553.439 1104.67 539.814C1095.45 526.19 1090.84 513.577 1090.83 501.975C1090.83 484.579 1096.43 470.72 1107.62 460.399C1118.82 450.077 1131.78 444.917 1146.5 444.917C1161.22 444.917 1174.18 450.077 1185.38 460.399C1196.58 470.72 1202.18 484.579 1202.17 501.975C1202.17 513.572 1197.56 526.185 1188.34 539.814C1179.12 553.443 1165.18 568.2 1146.5 584.083Z" fill="#FBA708"/>
<path d="M119.5 69.5C122.181 69.5 124.477 68.5461 126.388 66.6384C128.299 64.7306 129.253 62.4345 129.25 59.75C129.247 57.0655 128.293 54.771 126.388 52.8665C124.484 50.962 122.188 50.0065 119.5 50C116.812 49.9935 114.518 50.949 112.617 52.8665C110.715 54.784 109.76 57.0785 109.75 59.75C109.74 62.4215 110.696 64.7176 112.617 66.6384C114.537 68.5591 116.832 69.513 119.5 69.5ZM119.5 118.25C106.419 107.119 96.6492 96.7805 90.1915 87.2352C83.7337 77.69 80.5032 68.8532 80.5 60.725C80.5 48.5375 84.4211 38.8281 92.2634 31.5969C100.106 24.3656 109.185 20.75 119.5 20.75C129.815 20.75 138.896 24.3656 146.741 31.5969C154.587 38.8281 158.506 48.5375 158.5 60.725C158.5 68.85 155.271 77.6867 148.813 87.2352C142.356 96.7837 132.585 107.122 119.5 118.25Z" fill="#FBA708"/>
</svg>
